<mxfile host="app.diagrams.net" modified="2024-01-14T16:36:51.402Z" agent="Mozilla/5.0 (Windows NT 10.0; Win64; x64) AppleWebKit/537.36 (KHTML, like Gecko) Chrome/120.0.0.0 Safari/537.36 Edg/120.0.0.0" etag="YCDVk8h2o_YZveDDDpFb" version="22.1.18" type="github">
  <diagram name="第 1 页" id="-RjDDm0cu4hkCTvjiUrG">
    <mxGraphModel dx="211" dy="134" grid="1" gridSize="1" guides="1" tooltips="1" connect="1" arrows="1" fold="1" page="1" pageScale="1" pageWidth="827" pageHeight="1169" math="0" shadow="0">
      <root>
        <mxCell id="0" />
        <mxCell id="1" parent="0" />
        <mxCell id="ZKwVpPPEvr6WydnbmwrV-1" value="&lt;font face=&quot;Times New Roman&quot;&gt;Alignment&lt;/font&gt;" style="rounded=1;whiteSpace=wrap;html=1;fillColor=#bde3f1;" vertex="1" parent="1">
          <mxGeometry x="252" y="120" width="164" height="62" as="geometry" />
        </mxCell>
        <mxCell id="ZKwVpPPEvr6WydnbmwrV-2" value="" style="shape=image;verticalLabelPosition=bottom;labelBackgroundColor=default;verticalAlign=top;aspect=fixed;imageAspect=0;image=data:image/png,iVBORw0KGgoAAAANSUhEUgAAA08AAAFnCAYAAAB+XnJoAAAgAElEQVR4Aey9e5gfVZXvLc/4x/s6iMzznHdw0IM4HM8ZRnxPXodRUDITBMkRUHMRkIgQCA5EwOGmSESJCigKBAwhDUnIFcgFyD3p7tzJpdO5d9LpBNJJJyGXzj2gKKDMep9vxdXZXV31+9Vl1+9Xl289T/2qatfea+9ae9Wu9fntXbs+tPv468KVOqAN0AZoA7QB2gBtgDZAG6AN0AZoA6Vt4ENUUGkFUT/UD22ANkAboA3QBmgDtAHaAG2ANgAbIDyx5409j7QB2gBtgDZAG6AN0AZoA7QB2kAAGyA8BVAS/2ngPw20AdoAbYA2QBugDdAGaAO0AdoA4YnwxH8ZaAO0AdoAbYA2QBugDdAGaAO0gQA2QHgKoCT+y8B/GWgDtAHaAG2ANkAboA3QBmgDtAHCE+GJ/zLQBmgDtAHaAG2ANkAboA3QBmgDAWyA8BRASfyXgf8y0AZoA7QB2gBtgDZAG6AN0AZoA4QnwhP/ZaAN0AZoA7QB2gBtgDZAG6AN0AYC2ADhKYCS+C8D/2WgDdAGaAO0AdoAbYA2QBugDdAGCE+EJ/7LQBugDdAGaAO0AdoAbYA2QBugDQSwAcJTACXxXwb+y0AboA3QBmgDtAHaAG2ANkAboA0QnghP/JeBNkAboA3QBmgDtAHaAG2ANkAbCGADhKcASuK/DPyXgTZAG6AN0AZoA7QB2gBtgDZAGyA8EZ74LwNtgDZAG6AN0AZoA7QB2gBtgDYQwAYITwGUxH8Z+C8DbYA2QBugDdAGaAO0AdoAbYA2QHgiPPFfBtoAbYA2QBugDdAGaAO0AdoAbSCADRCeAiiJ/zLwXwbaAG2ANkAboA3QBmgDtAHaAG2A8ER44r8MtAHaAG2ANkAboA3QBmgDtAHaQAAbIDwFUBL/ZeC/DLQB2gBtgDZAG6AN0AZoA7QB2gDhifDEfxloA7QB2gBtgDZAG6AN0AZoA7SBADZAeAqgJP7LwH8ZaAO0AdoAbYA2QBugDdAGaAO0AcIT4Yn/MtAGaAO0AdoAbYA2QBugDdAGaAMBbIDwFEBJ/JeB/zLQBmgDtAHaAG2ANkAboA3QBmgDhCfCE/9loA3QBmgDtAHaAG2ANkAboA3QBgLYAOEpgJL4LwP/ZaAN0AZoA7QB2gBtgDZAG6AN0AYIT4Qn/stAG6AN0AZoA7QB2gBtgDZAG6ANBLABwlMAJfFfBv7LQBugDdAGaAO0AdoAbYA2QBugDRCeCE/8l4E2QBugDdAGaAO0AdoAbYA2QBsIYAOEpwBK4r8M/JeBNkAboA3QBmgDtAHaAG2ANkAbIDwRnvgvA22ANkAboA3QBmgDtAHaAG2ANhDABghPAZTEfxn4LwNtgDZAG6AN0AZoA7QB2gBtgDZAeCI88V8G2gBtgDZAG6AN0AZoA7QB2gBtIIANEJ4CKIn/MvBfBtoAbYA2QBugDdAGaAO0AdoAbYDwRHjivwy0AdoAbYA2QBugDdAGaAO0AdpAABsgPAVQEv9l4L8MtAHaAG2ANkAboA3QBmgDtAHaAOGJ8MR/GWgDtAHaAG2ANkAboA3QBmgDtIEANkB4CqAk/svAfxloA7QB2gBtgDZAG6AN0AZoA7QBwhPhif8y0AZoA7QB2gBtgDZAG6AN0AZoAwFsgPAUQEn8l4H/MtAGaAO0AdoAbYA2QBugDdAGaAOEJ8IT/2WgDdAGaAO0AdoAbYA2QBugDdAGAtgA4SmAkvgvA/9loA3QBmgDtAHaAG2ANkAboA3QBghPhCf+y0AboA3QBmgDtAHaAG2ANkAboA0EsAHCUwAl8V8G/stAG6AN0AZoA7QB2gBtgDZAG6ANEJ4IT/yXgTZAG6AN0AZoA7QB2gBtgDZAGwhgA4SnAErivwz8l4E2QBugDdAGaAO0AdoAbYA2QBsgPBGe+C8DbYA2QBugDdAGaAO0AdoAbYA2EMAGCE8BlMR/GfgvA22ANkAboA3QBmgDtAHaAG2ANkB4IjzxXwbaAG2ANkAboA3QBmgDtAHaAG0ggA0QngIoif8y8F8G2gBtgDZAG6AN0AZoA7QB2gBtgPBEeOK/DLQB2gBtgDZAG6AN0AZoA7QB2kAAGyA8BVAS/2Xgvwy0AdoAbSDdNvChD31IuGZHB1f160Mnjf4HbYA2kEkbIDzRcDNpuHRk0+3Isn5YP5W2AYBTpfNkftHs/PFnfiWEp2i6o81Rb7SB6tsA4YnwRIeDNkAboA1k3gYIT9V3KII6dYSn7NRV0DplPNZpkWyA8ESnKfNOU5FuWF4rH1C0AW8bIDx56yWN9kJ4yk5dpdF+WCbaT7VtgPBEeCI80QZoA7SBzNsA4Sk7DhXhKTt1VW0nlfnTVtJoA4QnOk2Zd5rSeGOxTGzwaQOVtQHCU2X1Hce+CU/Zqas49cy0rOe82gDhifBEeKIN0AZoA5m3AcJTdhw1wlN26iqvzi+vizYYxwYIT3SaMu80xbkBmJYNKG0gHzZAeMpOPRKeslNXbB9ZV7SBrjZAeCI8EZ5oA7QB2kDmbYDw1PUBn1anh/CUnbpKqw2xXLShatoA4YlOU+adpmreQMybDThtIB02QHhKRz0EuR8IT9mpqyD1yTisz6LZAOGJ8ER4og3QBmgDmbcBwlN2HDjCU3bqqmhOMa+XthnEBghPdJoy7zQFMXTGYYNIG8i3DRCeslO/hKfs1BXbTdYVbaCrDRCeCE+EJ9oAbYA2kHkbIDx1fcCn1ekhPGWnrtJqQywXbaiaNkB4otOUeaepmjcQ82YDThtIhw0QntJRD0HuB8JTduoqSH0yDuuzaDZAeCI8EZ5oA7QB2kDmbYDwlB0HjvCUnboqmlPM66VtBrEBwhOdpsw7TUEMnXHYINIG8m0DhKfs1C/hKTt1xXaTdUUb6GoDhCfCE+GJNkAboA1k3gYIT10f8Gl1eghP2amrtNoQy0UbqqYNEJ7oNGXeaarmDcS82YDTBtJhA4SndNRDkPuB8JSdugpSn4zD+iyaDRCeCghPb+xvkSVNq2XK/CVSM7lWhoybLY+OmCEPDZ+W+xXXievFdU+Zv9jRA/RRtBuf18uHXd5sgPCUHZsmPGWnrvLWTvB6aHs2bIDwVCB4ajuyRWYsXS4P10yXsTMXSN2qlbJ+R5Ns2dssOw5vLQRAbD+8RVr2NMu67RukrrFBxs6Y7+hjxtJlAv3YuKkog40zbaDyNkB4qrzOo9o54Sk7dRW1jpmOdZxnGyA8FQSe6hsb5LHRs2RS/WIHlvJs1GGvDfAIvTw+ZpbUr2ogQBXknghrJ4yfbmfgrh/fzns3I/cu4Snd9xLbOtYPbaC0DRCeMvKwiWrIm3ZvlGEvzpWxMxY4vS1R5RQhHXqjoCfoa+OujXTEcn5vFMGmeY2lH4DUT3X0Q3iqjt5p79Q7bcCODRCecuwgNu1sct7vmbd6JUEgRD1DX3gvqmknAYoNrZ2GlnqkHmkDJ22A8HRSF7QL6oI2kD0bIDyFcKqzZuDoQZm/upHgFKGOoTfoL2t1zvJmrxFmnbHOimYDhCfafNFsntebL5snPEVwrLNwE7y66DWZWLeYzn+M+oX+oMcs1DfLmK+GudL1WbdyoXy9/w/lM1/qJx//XJ9Y66l/f26s9O780ywvbtmgb+i9buWCQrUzhCe2V5Vu45gfbc6mDRCeYjjXNivCpqwt+5qdqcdbD9mZgnvZhvmCmayw/vslFzkPeT2+/+c/7HjoY1/DP/XpswTpnh71hHPelKFxsH2l9sWO9KoDpME5Tavhld5Cf5jafMv+5i5lrHRZmB8b/qRsAI77Gef1liFjxklT29rYtn7KKafElmFea5rlxS0b9A29Q/9FAijCE9sz8x7nPu0hazZAeMohPM1paJBJ85ZYdWAAOQAiNXCFKPPYPK+wZMIR9s10JnipHN2a8TSsGlvoEfqsRt7Mkw+UStgAej7gwNvKKy5QuMuRZnm2ygb9ox7c157XY8IT27a82javqxi2TXjKITyNeKXe+YaRzZsYoIMVAIReIVM2wk1w0nPfHXBtp3joSSoFTJoO4OVOq+cqvcW3oKDPSufL/IrRAKehnjF0zEaPk16LLaDIgjxb1wr9ox70mvO+JTyxfcu7jfP68m3jhKccwhNmimvZa3eoGeAI4OPVI+Q3/M7deCCtDuUrNSQP+eh57cFCHiZQoTwIU5Az43mV0V2WoMfQI/QZND7j5bvBzGP94h0jm9dVDijMe9W8p/3KEFRekD9mkEc5eX7l8Aq3Kct2PXiVNy1hhCe2k2mxRZaDthjFBghPOYSnh4ZPk51Ht1pziNTZ8XJ0vHqiAC8KNurQqAwNL2Ws2oulabBFfIRjH6sbkIL2apXK1+sc9Ah9ep1jGBvdPNhAEKcd95feu/rHht+1lwIK9z2NNsWrXTFll5KH9kXLpW2NmdZrv5Q8xDfbL6/0Zlg5Wfonj7ZpZlr3fpB6cKfJ6jHhiW1nVm2X5abtwgYITzmEJ9s9T3BK4ODASXE3HHCkvBwDxDedGcRTJ8kMd8szwQhOjOmoKTwhDWQhrpneDVTmuaj77HliQxnVdrKSrpzT7r7HcR+a96X7OksBBe5bbQeQzg1Tblk4LiVP46NtKtWuaLxy8tCGqByvP4ZMOeVkmXpy69AtB8fl6sErTVbDCE9sV7Nquyw3bRc2QHjKITzZfucJDgUcCaxuQPFzMBDPhBscl3K4tEGC46LxTFhDPm5Icx+b4KXy4m75zhMbyrg2lPb05Zx2EwJwLeVAoBTsuGVBnleYqbNS8jSeDXjyasvQbilMaV7m1q9sXjoqd53l6sHMN+v7hCe2q1m3YZa/2DZMeMohPNmcbQ9Agoe+NhRwCsx/jhEOBwOrxnGnQbgJQjiGDIUkTYct8oKzAhlIg62mR3wca/7YwuFBuMoyy2rKjbrP2faK3UBGtZsspSvltLvvQ1yXV5h5vX5Aoelwz5rx9Z43w8x9P3lmHBvwhHbHbMcg3yvMzNevbGibtJ3S+F5heg7bUvVgxsvDPuGJ7Woe7JjXUFw7JjzlEJ7wXSJ8nyjud57gOMApwaqOABwdDVNgQQMCp0PDzfiIY4brvhfkqHOleZlpNS/9dxhyVIZXOW00ah3fedpnd/ING2WjjOI22rbrvpTTrvegmafep24I0jh+QOGXLi3whDZM2x69FrQt2s5omLn1u1ava4JsN5yZskrVgxkvD/uEJ7ZfebBjXkNx7ZjwlEN4wg396qLXZGLd4k7/8PJGD3ejQ3/QI/UWTm/UV7b0VcppJzwRnpK4nwlP2WojkrAByqQNZNkGCE85hScY5bAX58r81Y10/iPUMfQG/WX55mbZ+XAKYgOVgieUBT0y2ousZUMvsjtMz2Hr17tjxoEM9BKZYX77fvLY81S5+4XwVDld+90HDGcd0Aai2wDhKYJjnRWDa9q50flG0bzVKwM5FVm5rqTLCX1hxsKmnU3UW47vj6TtKCvyS8GTDrXDVq9Hh86aYXoOWz84wTkMXTOHxql8M717v5Q8jWsDngBf7mF15Yba+ZXNfZ0opxecafmxLVUPZrw87BOeojtteah/XgPrP+s2QHjKuXO4cddGpwdl7IwFsm77hg4HKOuGm0T5oR/oCT1Om3ZvpK5yfm8kYUNZlFnOaXf3FqGXyA0Z5nX7AQXiKCwpeEFOuR6jUvI0XxvwpFCoMrFF+aL0iiGN+10pHPu9J4a8ytWDWa6s7xOe6Dxn3YZZ/mLbMOGpIA5i/aoGeXzMLJlUv1i27OUECGbDB31AL4+NniX1jQ2EpoLcE6YNFHm/nNPuBgGASikIKAc7CimQY/ZC+dVBKXkoG+To6gYWL5ml5Jkw577usLJM6PTq1XLLK1cP7vhZPiY8FdvxzIrtvrG/RZY0rZYp85dIzeRaZ0QKJuN6aPi03K+4TozAwXVPmb/Y0QP0kZW6S7qchKcCOYptR7bIjKXL5OGa6TJ2xnzBN4zQ29Kyp1m2H95SiJtix5GtDjyu39EkdatWytiZCxx9zFi6XKCfpG84yqfTkDYbCOK0w/lXQAFUlLqGUnBSKp3fuUrLA/TotfqVScPLlU3lBIG6IPWg+WZ9S3hiO5hmGz7hKy0/4SvNXOD4CvAZ8EfrjsNbS7Z/ab6uMGWDTwjfED4ifEX4jPAd4UPSV+JHcgtxE7hvmJP/piwu+L8pS/hvSoH+PHDfBzw+4cDZdtrLAUVYvadZns2y2a6HsHquZHzCE+GpkvYWJi+MPsEoFI7S6WqjOkoHo5gwmimMXvMWlz1PdB4rdgP0vOLSiuWVtxuV19O1IadO7OjkM1/qJ01ta63dmzaBAnWcZnm2ygb9ox6KYtOEJzv3blHspRLXifec8b4z3w8vb5vm++F4r74S9ZO2PAhPhKeKGH7zrtXOUJgVGxdWJL+03WgsT/kGmTqqjo6+3v+HMmTMOGv3pS2gUHtIszxbZYP+UQ96zXnfEp6qc6/n3a6iXh9m1sX7PZyZOJxdnpyZuHgARXgiPFXkgY2HJcb/X9WvT0Xyi9qIMl24xpP6yr6+6lYukDPO6+0AlI0eKFtAobaVZnlxywZ9A5ygf9SDXnPet4Sn7LcbebJRfhMzuj0W9ZuYhCfCU0Ue2BiyB3g67WOnVSS/PDXsvJboDTt1F0x3cNzR84GhY3j3Js76f512Zqz07rzTLC9u2aBv6L1I4IR7kvAU7L5k+5W8nl5d9JpMrFtMvySGLwz9QY9FslfCUwyDKZKhxLlWDNkDNOnMU3hwxpHHtMk/UKhj6jhLNsDhwNmyV8JTtuorS21BmLJu2dcsmJK79ZC9Kbjds3Xi8wfwfbDVspmfa8A5fPfO/N6dKUP9JvO8ytHv5gX55IOmSWIL/UGPW/YX5zM4hCfCU8cNncRNBZkjXhjWAU5oCDhxBB+cSdka5RbTtjgcOFv1TnjKVn3ltV2d09Agk+Ytse4DKRBBbyY04Vg/+6AfCkcYYMkNR5Chegds+X1bD+n8zmn6SmyhR+izEnmlIQ/CE+EpcWNHz9OkWePls5871xmuMXfptMTzTMPNxTLQQaANJG8DnIwmeR3btmPCU/bqzLYNpEHeiFfqnW8Y2SwLQEaBCQBkgg32TbDSfPHtPDMewEplaBy/bdB4fultheNbUNCnLXlpl0N4IjxVzNgvvOgLDkSl/aZg+fhgpw1kxwYe/NUgxyFh71N26ozwlJ26ynNbiBn2WvbaHWqGIXTau+TWHUDH3cPkjoNjxAFQAaJKDckDcJnndbgftioX5wFsJshpPIRpvLhb6BH6jCsnK+kJT4Snihk74YkPzKw0jCxndmyVk9Fkp670viI8Za/OtO7ytH1o+DTZeXSrVR8IYGLCi6kvE2AQrpCFcLMHyYQbs0fKlIV9gJGeRxoAl4brvrssYXq13PmVOoYeoc9ScfJ0jvCUcXjadWyrZGW97PJLnPefslJev3LmqQHgtdCJybINYKIIOB66VmriCDg6yBOOCZwR/TfZ/JdXy6RbODOmU6ThKifL9RC27IQntjthbSaJ+LZ7ngAyuMfRPijUaLnRTuBex1bDsEW7YIITzivwaLtixjf3zXhmDxT2FZ6w1X1Ni/Pucui5qFv2PGUcJqJWfJbSuZ36nUe3SBZWwNNzE57ORFn99OnWfZbshmWlw5I3G9AhewoilRi6B4dGHRV1iNTJMZ0g7KvTYjowSKvxtT5Unh7nfUt4YluUBhu3/c4T7mu9t9Emua8RYW6oQnxtJxAfx0HaA8jReG5Yc0Ma4rnzVfBylzHqMd95Ijx1MfioxmQznTrtbUdaZMfhFtm0c7VsbFslG3c0Zmb9Rt8r5Je//Vlmymvq9o32JsG6rX2jbD/YLDsObXbqAZCFurFZ15RFx4I2EMwGMFkEJqDBpxAwKU0lJqOBI6IOEuoJAGUea92Z8KRh2LrTm+eKsk94CmbfRbGHal2n7dn2ACTao4OtG1DQTrihykwDPbhBCGClkGTqSdsRnDfbGuxrfOwjDeIgb5RJz2HrBipTfth9zrZHeEqdIwznHE76iPHPyL0/+aFcde23pUePHplbP/nJT8o//dM/Za7c0PVV375G7v7xXTJs1FOyZe96B6RaD2wiQLG9SF17Efahl4f4gCeAVCWuBY4IHCB1TPzyNB0aM446PRqmzoweF2FLeCI8pcHO8V0iG995AoSgTcCqwIT7WsPMe1wBSs9pfICNhrm3CmSmzpDOK62ZlykHMrzKacqMut/xnad9diffiFqeSqTjO08pd/4ATQ0bF8ltd90hV1/3XfnFM8/LiLlL5NX122TOG/u5VkAHs7bscXQO3aMObr1joNS+Nt3p+WvZs87pjUJPFHuh6BBUotFmHl3trJLwBP2bTojprJh1UwqeTKdGHSAzbd73CU9dbTjvdZ7W63t10WsysW5xRf54SasO4pYL+oMe48rJUnrCU4rhCT1OAKevXHKJ3Pfrx2T+7uOy4M23uFZRB6iDH/3qcfnKV74iMxa8LOu3rZCWN9c6PVEYTgmAylIDwLLSicmDDVQanlRnpXqhSsGTOczPD740jzxuCU9sd9Jk18NenCvzVzfy2R3BH4beoL801WclykJ4imAslagYHap32123O+BEaEoXNAKgvvf9W2TJ2npZvXWp8w4a3odCDxTfgaJjUIk2gnmctLNKwhNgxxxGo8Nt3PURFJ7c6YpwTHg6abtFqO+0X2PTzo3ON4rmrV5ZOAiIUzfQF2YsbNrZVDi9EZ5SDE94x+nqftexx6mKPU1+0IoeqKu+c5388tEHZfGaOlmzdZlgCB/eg+LwPToGcR5ITBvefioNTwAjrSf0PnkNvQsDT/pCt8rM+5bwFN7G824T1b6+jbs2Oj0oY2cskHXbN3Tc39UuVxrzh36gJ/Q4bdq9sZC6IjylFJ4wqx4mh8B7Nn4OPMOr2xuFurnl9ltk9uJX5bV19bJh+0pnMgkO36NjkMYHXp7LVGl4Mt95wvtLbt2a7zSZw/IAWeY5c98tI8/HhCe2kWm17/pVDfL4mFkyqX6xbNlbnAkQgtQH9AG9PDZ6ltQ3NnRp94LIyEscwlMK4QnDvuCAY1Y9TA5BSKouJPnpH3XT56pvOVMk1y2fIY0tS5zhe5jKHPCbl0aC10FHJ+02UEl4SrsuslA+whPblDTbaduRLTJj6TJ5uGa6jJ0xX/ANI/S2tOxplu2Hi/Fe844jWx14XL+jSepWrZSxMxc4+pixdLlAP2muv0qUjfCUUnjasmedM6U3Znrzc94ZXl2owoyHmMZ81EvDZdaiV2R50wJZ39pwYva9w4SnSjRgzINOGGyA8JQtOyA8Zau+itrOvrG/RZY0rZYp8xdLzeRa5/0eTG3+0PBpuV9xnXifCdc9Zf4SRw/QR1FtwX3dhKeUwhNmcINjXrf9EOEphe88AVwxVTzqaPiYp2Rq3URZtLpW1r6+XF7fv4ETR6TwvnI3fnk4fvNwk+xrnS7tzePkwJrfycGVv5XDiwfJkfn3yNFZA+TYtO90rHv2LOny4EM8M06Q/fYNz3aRg7Agac04yNtdByijGSfo/sdOO7XLd57ycm1+9Xak9jY5tOyXzgr9Y4UtuHWaxmPCE+EpjXbJMtEug9oA4SllTh6G7GHdvPsEPNUSnlILjwpPw54fIi/PfUEWrJztzLy3dd8GwdA9zrrHhjhoQxwmHoAJsOQFSKVg4y/Hd4p7eXvRoNCw8qctr7jFCMJK5e11Dnm7F5TRK265sNM/dpocO3ask7i8XFuUegNUwUb2tKdz+mXCE9vGMG1e0eP2vOLSTPwpUqR6IjylEJ4wW1vzrjVOr0bt9oOphYeiDxtUeBo68gnnvaf6FTOd95627F1PeErZfZWnRr392NYOwDg++3vy+2UPyR83jZd3W+fKe7uWyJ8PtQgc7v96/51OMJHng9NPP70LPOX5enFtH7xzSN7ft8apc8ArVtiCGzTRE7l/66RUOV+EJ8JTntrkJK9l7tJpziQzKzYuTNU9nOQ1Z0E24SllTh56KwBPm3auJjyldLieQqMJTxNnjhNMGrFyM2boWe9MWc6eJzoIth4Ce97aJgf+8Ka8/5d3HSaAowxQKhIglYKhIsJTKX0Aqt5ZV9MJpPburE+N80V4Yttoq23Mu5wHfzXIgacBA29Izf2bd50HuT7CU0rhiT1P1Z0MQgGp1LYDnkY8LoCn2mXTpaF5Ucf3nghPdBCCNMJ+ceDsYmjeoR1zO6CplMNc5HOEJ//aV5ACeB/54/5UOGCEJ7aNfu0ewzvbxoUXfcGBJ0yKQ9101k019UF4IjxxWGDEHi7CU3oasmo2orbzxjtNeGdFh195vRvk7yoX8wzhKXi9A6L2vb1DYGe2bTeoPMIT286gtlLkeBiqZ34LjkP30nPfEJ7SDk+tfOepVO9PNc8RntLTkOXlAYuZ1XSWOLzPhPeYkhqa19raKr169ZIzzzxTTjnllEyvcDCyfg2oB9QH6qUSy7GGRx1b85rNL+n7ifDEtjNpG8uDfB2ypwB1Vb8+VfvDIw/6tHkNhCfCE3ue2PPEBrmK7QBmRIMDi2F6Or04epswIUBSCxz0j3zkI/LII4/Izp1dZ+FLKl/K9dcA6gH1gXpJGqAA5DobIWyu0u9DEZ4ITzYd2bzKat61WjBhBIbsTZo13tnP67Vm7boIT1V0mryMRSeM6HjniT1PqYU79jzRAfC6h8OEYegUZkPDEL2jM250tpgxLaneJnXd0cMBR73UMmvWLHnwwZ/JlVdeIWee+Q/Oin2E4VyYZfv27U5+F335S/KJv/Z0YYtjlAPnwyy25TU3N8uQIUOkf//rpVu3/+30YmGLY4TjfJgljjzoA/VTieUPjU90DA/F1OZhbDdOXMIT28449lO0tPwIePruF8JTSuGpY7a9KsHTN747oBO0/Megnztjb7Gt5lC5NOVNeEpfg5a1hyocVn23CVtMOZ40OMEpxxAxvx6nt99+W26+ebfyi7AAACAASURBVICc99lz5YFB98irU8bKrtb1zop9hOHczQMGCOKWW2pqhstHPvJ/yw9u/w+pmz1Z9rRtlD//8YCzxfEPbv+ec76mpqacKOe8bXmPPPKwfPjDH5bbB94sI2qGyOqGefLO8V3OFse3DxzgnEe8IEtceagX1E+lFvMbXZWa0pzwxLYza211NctLeErf/UJ4Sj08Hag4rACQ/vXfL+mSL8bdTlje5ISf+alPS5pBCmXTsiYFXISn9DVo1XzAhc0bQ6WOzTzR2wRwwtTjlVrwfpDXgh6lT33qLLnzjlvkv947KPL+Ic8V5+78wS1OXL9eqIMHD0rfvn2k+0UXyKoV8zzlqHwAC+IhPtJ5LbblrVu3Ti644IvSp9eV8kZLY8nybWtplD69r3TiI53XYlOeX/145WsjDN8GU4ivxBA+whPbzrDtZZHjE57Sd78QnghPnSAJwAFwcvc8PfVqrSdQJQUmceTqNcSRESQt4Sl9DVqWHrCHX/tZh8OKHqdKLl7OOXqRAE4P/vSHJUFCgQdbxEUarx4ogNDFPboHlgV5F/e4yAEoL13YlnfhhV+UG67/dqjy3fDda+TCCy/wKp7YlOdVP56ZWgzE5CQAKLwDlfQkEknA07iZC+Sh4dNCrcua13QZqrhwfaP8ZtTMUHJGvtL1G1ote5vlmYm1oeQMGTdbkM7djvHaOtdr0ert42f+g9z/6MhQtkSbnCZeOnDfW1GPCU8ph6e5rZXteQI4PTDs+S69SoAphAMq0KuDXig9BljpbDC6RRyNp71AOKc9WhoPoINeLKyQjfM4Z8KLhiEc8ZEv9hXwsK/pEYZjrCiXKcf2PuGJ8BS14cW7Tjqr3jtrnq7IUD3Tz/Zyzm8ecJPc+YNbQ8EEgAe9VBjmZy4YWtf9ogtDy4K87l++QJDeXGzLu/fee+S671wdqXzX9btKkN5cbMvzqh8zv6T29R2oI7W3JTqVeRLwFBZUHhs1W5as3tJFla+37QvlpALYJs9t7CLnT++9H1oOytR+6HgXWSOmLAoli9fWGbb8oDor9faJT/53ufeh50LZQFauLen7Leozulw6whPhqQMwAB6AEwUfEzYAI17HiG+eM9PiHMAHEAO4wbFCju4jT4Uv3de4yA/7Cml6Hml1X/PWraZBHLO8SewTnghP5RrYUuePbZnizHhWiXec3N6Y2znH0Du8x6RD9R595GfOfY0tgEbX7a+v6fhzAvsIRxqk1eF7mMwB7zhhKB7Oa5pz/vHsDjkqT/NRWQjHED+k10kkwshDepW5dNEsJz+3vHnz5smnP322HD+0vaM8PS+72LkuTaPl8yo70n36058SyMHilueVRuVp2czrdcuDTHf9uOsvyWOdhQ8TmZSy3zjnkoAnlIcLNZBHDZx99tnS1taWx0tL7JoUmOO0U6XSEp4ITw5kaG8OIASrAgugA/vaY+Q+xjmAjMKJCTsmIOG8CVbY17iQofsAKc3LjI88NByyUEbN1ywD8jTjabmS2BKeCE+lGtdS5/b/fqd88F8fJPbgKCfY7ZxjBj1MBKFOPmAC+9iajr7C1EsTnpOBt9zYER9pH/zZz5xsMVscJodQWYgHGUij6fWcVx4IQ3qdDTCMPOShZTfzMOXddttt8uuHT0IhgEnL5QY8v7L/+uGfyu233eZcr1ueXxotj1unCDflQai7fsrVp83zgHl8YwxD+Pa1Tk8EoJKAp7rGBsG/2FyogbxpgPAUvkYJTymDm1IOkY1zOlX5xrZV0qNHD5m7Lflhe9qTo4AB+DCHvAFSACh63n0M8FHoAvBoPKRBuMpCPO0RQh4qE/uazpRtytW4kK09VRpmltcELi1HUlvCE+Ep7D2Pbzohzbt/fif808BiCrdzjinIMZMeHHkTJgAjWNXxN7cmpCDtlVde7pQQ049jFj2Na8Yz983zJqAhHOkhB0sYeYAftDluCDLlnXvuuTJr6gsd5QM4aY+Tgo9ZNq/9mdNekHPP/SenfG555jWa+6Yc9/Wa8iDUXT9ORhX8weQlgCcMLQ1r40HiJwFP+p5SBdXErKiBimiA8BRezYQnwlMHjCQFAYAUU7YJOQiHMwJQUQjCsRlfe4DMMOybUIO0OEa49ki593FsykY5NE9stZwmYJmykN5ddoQltRKeCE9BHEWNo9OSH9k2PfyTwHIKt3OO7zhhOnI4+CYwmfvq/GML5197a3CMtJCBBd9vwnTkGt8ECHPfPO+GCaSHnDDyAECAH8jFVoEIx6a80047rdOQPROYzH2kM8tr7mOoHeRgccsz45n7pa7XlAeZ7vpxMqrwzzvrauRI+9rMwJM6SxVWE7OjBhLXAOEpvIq1PdDnr+0th+2lDM4q2fMEIAKsYAWEYNVjbAEsWLGvgKTHCjJmGu0JAqy4oQY9QirH7B0y992yzfIpeEE25CgQaRycN8sCWRonqS3hifAUtEHG7GWYxQz/5v9xT0P4J4HlFG7nHODz+6M7HfAAdGhvk9kro84/tiY44diEJ8j+4N2T05wr0ACQdN+UBcBwwxO+A6VlDCoP5dZyuaHPlAfY+cOxXR1whzSavxt2tLzuspuw45bnl0av2et6TXmoar12y9UeWhyGlga18TDxkuh5Umcp9EUyATWQcg0QnsJXkLYHYdqlMHEJT6mHp/bEISAOXChEQQYAC2ADiIkjMytpCU+EpyCNrTmzHuDprfr/DP8ksJzC7Zxj2F79nCkdQKEQ4eXoAzYUrhQIzGF76DHat7u5QxZgAvCBNAo3mg5brzzMnqIw8nS4nglEyMOU5wyzm3Zy2J4JXZpey+dXdgz76zRsz5Dnl0Zlel2vKQ9V7a4fy9UfStyRP+63DlCEp1BVwMgF1wDhKbwBEJ5SBjdBnKU4cbr2PKUXnsxeIwUeABThaZ20HtgkqMs4tsC0+YCzA2t+5/Q46Qdx39+3JvyTwHIKt3OOCSN+/uB9HcAD+MAfIQo7CgRw/BGuqwKBOWGE+x0lgBPiK5iYsKL56DmVZ76jFEUeyquysDXl3X47Joz4aafzel0oG+LjGFt32VUm0t922/edWnHLc6cJcr2mPAh114/l6g8lLoneJ8JTqCpg5IJrgPAU3gAIT4SnVPfiqBOlW3PongJVXrfsecoH3CQJqfu3TnLA6ejMm5wtZjGrxtTk7keP2zl3T1WukBBk656q3D07XhAZ7jjm7Hi25Z2YWvxTnd57cudf6hhD7LpOVW5PHurKXT/u+qvkMey1fdcCq999IjxVsgaZV9Y1QHgKX4NDJ9Q7H7tO6vnOYXspg7OOnqcdjX+dbS+9PU95haKg10V4IjyVapgxs56+53Ro6S8ceMJHSNOweDnn+NAtPnhbChy8zt35g1sEH9jVRb/LhO8recUvF4bvQ3l958mWPJTT+ahtv6silQ8f17333rv1cp2tbXle9dMpwwoe/HHTeMd2MeFJKXsPc47wVMEKZFaZ10C3bt1k/fr1mb+OSl4APja9oa3JWpvlbt8IT4SnVPdsBQWZasQjPBGe3A2qeXxo2S8dpxNb3U/DkD08wLyc87fffls+9amz5MGf/jAwVCAu0iCtudTUDJfuF10QWI4JVEiH9OZiWx5kX3jhBXLDd68JVcYbrv+2XHjhF82idezblOdVPx0ZVXgHNmt72nLCU4UrkdllWgOEp2jVZz6Pbe8TnghPhKeI05kTnghPfg1yx7TktbfJnvZVHT1QH7xzKNpTwHIqP+ccw/cAQ+hNwnA8E2rMfZxDLxXiIo3X0rdvH7m4x0W+Mkx5un9xj+7St29vL3FiW966devkggu+KH16XynbWhpLlvONlkbp0+tKueCCLwjSeS025fnVj1e+SYdh2B7gCat+p8zP7oOGE56SrjXK37t3rzzwwAPSt29fufjiizO9fuYzn5Hu3btn+hpQB6gL1AnqphJL0PYoSjzCU8rhac4bHLZXjV6lIHkSnghPXo2uOS35vtbpghWOZ1qG7OGhdeaZZ8rOnTs9n1/oRcIQvvM+e65gIgjMpIepyLFiH2E4d/PNN3XpcTIFHjx40AEe9CRhKJ4CktcWQ/K6f/kCB5yQzmuxLU/zeOSRh+XDH/6w3D5wgIyoGeKU9Z3ju5wtjm8feLNz/pGHH9IkJbdx5aFeUD9pWvDNJ9iwraF7hKc01W7+ygLnvGfPnjJhwgRpb2/P3wVm9IpQF6gT1E0lAMrr+WwrjPBEeGLPE3ueEhsXbKuhyoocc1pyzLKHcmsvFN4dScvSq1cvwUQMpRb0KGEWviuvvNz5AC6+BYX9B3/2U9/eJi95NTU1zjtMP7j9e86sd5g2HN9dwhaz4GFyCLzjVDO881A9L1kIsy0PMpubm2XIkCHS/4brpVu3/+0Ma8S2f//rnXCcD7PEkYd6Qf2kafnTlldOwNOGZ620FYSnNNVu/sqC3g046aWWHfvekWUbD8vkhXtk+LQdzop9hOFc2CXN8g6/9Z6sef2YzGxol9G1u2XI5FYZU7vbOV73xnHB+bBLHJmoG9RR0kuSfgPhKfXwtJ9wExFugvQexYnDnif2PLkb57076x0n88j8ezpmJ2vf8KwTBgc0LUtra6t85CMfcQDKrwfKZlkxiQSgANOO47tNGJaGLY4RjvNhFtvywuSdVFzUA3SBekH9pGl5b9cSx4YPrvwt4SlNFcOyeGoAw8P8epze+/MHMqehXZ6d0Sbj63fLxIV7ZNqyfc6K/bG1u5xzcxsPCOKWW9Iub2XLUXlySqtMWLpXpqw9ILO2HJF5u95ytjge99pe5/yKzUfKXWrH+bgyUTeooySXyXMbZeQr9VbaK/dzHseEp5TD06wtewhPKYUn1E2PHj1k6MgnZOLMcVK3fIY0NC+Slj38zpNXY1OUMAzbw6rXm7bJIvSBBQcdPRwYIgaY4VpdHaAeUB9pAyfYi04aAVtWu46zTaLn6ZmJtQKHiQs1gPdrvBb0Dj07vc0BpFkN+6XUOnruLiduqV6oNMs7cOxdmTDvTRm94E2Zs+1oST8S55+f/6aMn/emIJ3fYlOmXx355R02nN95ShncxHlgBEmrU5W/0d4k3/r21TJi7pKSRh+n54Rp34qlW9RN72/1lZpxv5NJs8Y78LRy82LCU8Hu2XL3dVrhKezDKM3x+/fvn+biZb5sfzm+s6NHtZy9BzmfBDwhXy7UADTg5Zijh8gBp7rdJaHJBKqxdbudXiivHqi0yxs3700Ztzjcn+9jFu1xAMrPimzK9Kojv3yjhBOeCuaIKTxta98od993l/zimedjOfgEpHiAVEp/qJvv3XarPDt+qEyePV7mNcySxpYlsmXvetl+sFlQl0EcCcbJ9/C/I7W3OY5nWmbai/IgSnOaY8eOyemnny6jR49OczEzXTadcQ/fLbPRXhGeMm0OqS+8l2M+u6E9UI+TCU/YRw8U0rqXNMtbuP6QjF0UDpzU1wFAIb17sS3Tq47cecY5JjwVGJ6GjXpKrr7uuzJ/93ECVMqG7qFOrvrOdfKf994uz014Wl6e+4IsWDlbVm9dKlv3bSA8Fei+xXtOpRxKwlOcR2D5tFOnTpUPfehDzhDa8rEZI6oGdLryUrYe9BzhKWotMF0QDbgdc2d43Yy2wD1OboCqmd7WaRKJNMvb1f5HqZnZJvU7o/mNSIf0kKNLEjLddaR52doSngrkhOHBg94KrOi5gBN+6x0D5Ue/epzwlDJ4uu/Xj8n1A/rLM6OflDGTnpVp8ybJkrX1su6N5YIhlzsObWbPUwHuXZ2WHBNE+DmO6nTaeihQTmcNDB482IEnAFRbW1vnkzyypgG1Yz87DxNOeLJWLRTkoQG3Y44Z9DARhBuKgh4j7WtNhztySrO8+WsPyuTGeJ+4mbhyv8xbc/KTEUnIdNdRh3It7RCeCuCAuR86gCc433DCa1+bLpdccokDUOyBSm4InnZZl9uiDgBOX/nKV+SXv/mZM2RvwqujZPbiV2V50wLZsH2ltB7YJDsOtxCecn7vek1L7r6XcaxOp6VnAsW4NIBJWwBOWO+8807XWR7a0oDasZeNhw1LAp5aD7bI8bfDTzFtSz+Ukx4NuB1zTEGOmfSCwpI7HtK+NP/NjgtMs7zn5+ySqRsPxfrDfdrGQzJqzq6O601CpruOOjKztEN4yrkD5vfQaTvS4vQ+bWxbJTMWvCw3D/wPZ5gY3rPBRAWvrN8mmCqba/I6wKx60Dl0f3W/6+TG/xggjzzxcxk+5ikZ9/JIebX2pY4he5t3r3HAF/XnV7cMz8c7TviOExxKc1pyr7pVp9PSM4FiDA3gfScFJ2zx7hOXZDRwfPb3JM3vPA0ZN1seGzU7mYun1ExpwO2Y4ztOmI7cDUVBj5EWMnRJs7ynX90Recie/nmMoXtDXz15vUnIdNeR6tbWlvBUUHjaeXSL03uBaa/Xb1vhDAn7xa9/JgPvvF36XPUtZ3w//nHlWhkd9P7Wt+SmW2+Wu++/S3434jFnhr3RE2tkypwJMnfpNKfXqWlHozPUEuDEySLyAUheMISw/VsnOeAEZ7LcO0+EJ1uPw65yAE+LFi1ypvjG8D0cY+WSjAb87oew4Un0PKmzlMyVU2qWNOB2zAE7M1bYhae0ygPozNsV7X2nUvBkW6a7jmzbl7YHYdumoPH5naeUwhmcbwAUhu6hN2PVltdk0epaZ3gYHPbRk56V58Y/7fR+DHt+iGB9epSd9ZY7Bsipp57qrH/zN38jWHF8Vb/e1vKIU9b7B98rZ539351yafmu7PU1+cVvfppY+Ua8MEywPj9xuIyZ/Jy8NH2M0+NUu2y6LF0/T9a+vtyZZQ9D9lBvhKf8wtOe9kbnH3hAUXvzuLI9jHgvClM9c0lOAwAnrFyS1UBQx6JcPMJTsvVUdOluxxzD7CYvijdsb+KCPR1qTbM8DLHDsDsFoShbDPtzD9uzLdNdRx3KtbRDeEop3JR7ONg477z7dLhFMG15867VsmbrMsdRx8dYZy58WV6pfdGZInvijLGCFQ491henjY61PvXcY/Lf/v6/dQyH+du//Yjc+oObY8mMWyav9Odf8HmnjP/2lYvka1+/zNlHmM2yqk5VxwBXDNPDO07zV86SFRsXOj2DLW+udYZZstcpv9Ck97R+tynMB0MtPQ8oxkcDQ4YMEX7ryUc5FoP1Hoi7JTxZrBSK6qIBt2OOCR7Ghfi+k3s4n9eEEWmVt2DtQcGED1GgSdO85JowIgmZ7jrqUokxAwhPBYYnPKB0+N7r+zc4PVCYza2heZEDUQsb5zgOPGAKK3pB4qyAsetuulbO+Pjfy6mn/q0DI9g++KtBseTGKVO5tCjvb4Y+3FE+lPWrX/uKU/Yvdf+i3DPoPzvOlZNV6rzqGMC0aNVcWbZhvvNNp/WtDc5HcQG4ACfUV1zHgunTC2DoaUKPE4brYcKIoHUV8znA5GU0gOnKe/XqVSZW6dPnnHOO02707NlTli5dKi+99FLpBH89u337dicd3rlC2jwvQe29XDzCU56tpPrX5nbM404tjo/rQoYuaZaXxLTiSch015Hq1taW8FRweMJDCD1QcMwxfTkgCr0cmEgC70JhuBi+LYQVQ/uirDVjfyfXXn+VnPmJf5Are39NMHscwOzUj57qgEkUmWlIc9eP75B/+cL/5zg2uD5cZ9RyqY4BrwCmTTtXO9Ck05Kzxym9wFPOkQt6XqclBzzta50eGJwgn0uyGogLTwMHDpRHH33UKSTACSAUFJ4AXUijEJVXgMKHcsP8YVDqviI8JXs/FF26l2M+t/GA88Fbd69SuWN8JHfmiv1dVJpmefigLT52qz1JYbb4uO68tSenKdcLty3Tq440LxtbwhPhyXHS0KOhAIVeDkDUlr3rHZDCO1EY1hd2xYQH/3rBv8hHT/uo3Pezu6Vh06JOMtzHYeWnJT56jXB9n/jkmc763QHXOj11YcoHHWPFBB7QO/TvTEl+aDPfcSrAPRp0WnI/h9HGw4Ay/DWASSMweU7UBcBjwlKYnieAFsAJC9IBpvK46MQnfjYeJpzwlEcLSc81eTnm7/35A0EP0tgQw/cQt2ZamyCte0m7vAnz3gwNUACucfNOTsnuvmabMr3qyJ1fnOOmrbukrrEh1J+cYdowThiRIccPPVBYAVIKU/ieEL4JFXRFrwmGuf3zef8kF3z5C/LAQ/c5PSlB02c9Ht6duvHW6+W0j53Wcf2Brgl6PtziAKwOz0MdoD7C3HCMm80eqqDTknvVL6Yyf3vRoDjPAaYtowF8HPfss88uE8v/NHqdAEHogfJaAFc4j1V7qLSnScPdW4AU4mqvFs5DjplOoQt5euWhMnFOy1gtOCM8eVkGw9KoAT/HHMPtaqa3BeqBQo8T4prD9dzXmmZ5B469K4Cd5+e/KXO2HS3ZC4Xzoxe8KePq3xSk81tsyvSrI7+8o4R7PY9thRGeMgRPqHQFKN0qSJXbYpjfnffdJp886xNy4UVfkDlLXu2AsHJp83r+uQlPy7eu7e04RJddfok8NuyRQDpR3ROcsglCYRtPp9ep9jbnPady05J7yVanM0rjzzTBNIDpyeN+4wk9TworCkjIHftmrxTiuI8VgsyeJ7c8hSaFHwUi5GGmM/dxDvEBYApjwTRiP5basZeNhw1jz5P9+qHEkxro27evtLe3nwww9tBjNKehXZ6d0SaYCAIfwMV3nLBiH2HooZq1Yr9nj5MhytlNu7wVm4/Ik1NaZdxre2XK2gMya8sRmbfrLWeL4wlL9zrnlzYfcV+a73Fcmagb1FHSS9h2KUx8wlPG4ClM5SLupFnjZcDAGxxouuvHtzvfJAorowjxMdEEoBKOEfQFvRXhunmNwQEwCjhBv+p0Jv2gKLJ8G/Ck+tMeHu2FArwoHCEOoEjP4Rhthp53gw9kaVyFJ42LcBPSIEvzVsDSMiEPwFY1F7VjG20G4amaNZn/vB944AGZMGFCyQtFrxFm4cMU5PgOFNaX5r8pi9cfKtnb5Cc0zfIOv/WerHvjuExvaJfn5+6SIZNbZXTtbpnZ0C5rXj8mOB92iSMTdYM6Snqx0Vb5ySA85RSe4Px/9nPnOtAEMMD7PX5GwPCTDjT0BH2p7gBSmI6cOjqpI+oinC7U6Uz6QVF0+QCMqIsbTEwIAsjgWJck4EnBCvBk5o08cQ6ghesze7y0PJXaqh3buP8JT5WqtWLms3fvXufPBjjpfj1QxdRMda8adYE6QXuLOkp6sdFW+ckgPOUInkzHH70ohKZwTq77JgGAordOhzpSn/H06dZvUY7V6Uz6QVF0+Ri2hx6oKAse5tpDhPSAGAUqhOs+zuHYhCkbPU/IT/N3w5P2QilgVQug1I5t3LeEpyhWyjRhNADnHL0bGB6G92u4Vl8HqAvUSSXAqbGpVZY1r0nsj2/CUw7gCdCkQ/MATXOXTkvMYGw8OLMoY8QLw+Sqfn2cf397XnGp4OGfxetgmYMBIKYl39PeaKWO1ekM8+Bn3PAa6Natm6xfvz58wr8CEaAEIIRVgUWFAZ70nMKLwoyGA4DMsDvuuKMjDc5pPGwBSnoMeWY65I1zyFP3cd6dRstWqa3asY02JAl4GjJutjw2anal1MF8qIGKaSDuN+wqVtAUZYS2ANOV22ivvGQQnjIMT3yfKZgj7GX4ccIAUgAoODh8P6o6dRCn/sqlNaclj/qek5mHOp0peq7ksihx4CmXCrF8UWrHpm1H3U8Cnja0NUn7oeOWr5riqIHqagB/CMHXwIyiXIJrgN95yjDcRH2wlEqHXia+z5Qeh13fj8LU5wAp9vqlp25K3UelzsWZltxLrjqdwZt9xgyiga3bdsnQkS9Lnxt/Il++cqB88nP/Rz59fl9nv8+Ng2ToqFdly7Zd5UVNnXoyDob9jR6dreOIQxVPXmSwPbVjLxsPG5YEPKEMXKiBvGlgyJAhDjxhyyW4BghPhCen2xHQhPdvMJEBhubh4YOwsA8txk/GuQc06ftRqCPsc6KJZHSdpA3va53uzI53dNYAsdHrhLKq0xm82WfMUhpYubZF+t36oJx/2QC5f/AjsrB+kmzbVCdv71/urNhH2P2DH3bi9Lv154I0vgtgafBgEUBI//4n1iwdL1rke2k2T6gd27j/CE82a4ay8qwBfPwbPU9xP8WQZx15XRvhqeDwBAec7zNlywnn+1HZqi91BjFcD9AEJ7F9w7PW/phQp9OrgWdYOA385JER8vlLb5IxY58TeXtNoBVxP3/pjYK0vgtgqUcPEe2Fytqx74XZO6F2rPdLnC3hyV69UFJ+NaBD9gBPHLoXrp4JTwWFJ/f7TOzFyKZD7gYpHMdxOpg2OTs4tOyXDjhha1PP6nSGa/oZ29TAW2//Qa77/i/klrt+Ku8eXhkImky4Qppb7nzAkQFZnot7somsHXtelL1AtWMb9wbhyV69UFJ+NaBD9hSeOHQveF0TngoET+b7TBj6xamxk3OUbTgAYWWgPs0P8fL9qPTUb3vzuI7heuiBClu3peKr0xm82WdMtwYATlf2+0FoaDIBCvuQAVlcwmtA7biUrQc9lwQ8jZu5QMZPXxb+wqqUwpxhUZ1jzMpYbtF0OrW9xtfZGHEeC2ZrNKfU13g2t155YIZI92yVcfLENSAfXcxZMTWsGlvUmbsObJcDn17Q3idssXIJpgHCUwHgyf0+E3qd+D5TehzroA5B0HjoRQRI4ftRfD+q+vWMacl1uB7eeQpaj0HjqdMZrMlnLLcGMNzulrsejA1OClK33PVA6SF87gLw2NHA+/vWiK37Iwl4UmcpS9UF0DFBAw55EOABQHg57pCl8FRpPWh53NdkuxyqLwCVfjbAdh5B5PnVQZC0YePALriE04C2B0Gf02HjcaryKsKZ+T4Tpr5mT0T1HemwN1Dc+Do8E7P18ftRla9/c1pyzLIXtz690uP9qT9teSVcy8/YjgYw0QPecYoyVE9hyb2FrM9fcmPpSSSof08Nt6QmwAAAIABJREFUeNl3lDDC0wn1ukEDABKk98nPca8WPJnXYe57GlGMwCRlhy2WXx2ElRMkPuEpiJY6xyE8VRFuojwUgqSBwwxHGT0PnJWt8g5zkDqqRhz3+1GE6eRtw/a05H5207lZ51FQDfS7dXDgySEG3XtT4N4pTCIB2VzCacDPvsOGE55O6N0NA4Af9DyZH1U2h6xhX4eLaU8P4iMM5xSeNL3KR7iGKZzpMdJqetMaNFzl4xiL5qPpkYfGxVbz1PPu3iENh1xcg5nGq5w4j3he+agsxME+FuybetJzkI19jaP7TsBffxCGFWXW68a+ptVziK7wpPGQP8LMOHp9CIuzxE0fJ++spiU85QSezPeZ8N4L32dK3jEO+0BPU3zYBycJSdZGkpiW3M+GsvoAqma58Y0mTEfu7jnyO+55yYWB40IGZONbUVyCa8DPvsOGE55O6NwNBApEZo2o4wznXAEBcKBx9bw68ZCJBQ4/9jUPpEUcpMWCrRnXCTR+cA4ysJj7WgaEm3mYcVEmd36GaCdvlMUtwyudQgrimuXAvl4LziEtZKoeHOEiHdCI+AozOId9LYPGxdaUiTTmYpbF3Me1ql4gF+cgW+vIPG/KC7qvdRw0PuOJEJ4yDk/6PhN6mQBN6HUK+6Bh/GSdaOq3mPrFcDq8j2RzWnI/W+LDLLwG8JHb+3/+68BAFBae8I0o5MEluAb87DtsOOHphM5NGHDXAhxwOM3qOMOpV2dfHXccm86+wgxk6b6Zhxkf4SrflGGWQ/NEfrqvkOCXh19+XnL9ZJjl1GtFXFO2GY5zJrSY12OCi8Yx42PfXBAH+SMv5KELZEJfCkRm/l554LzqF1uzTCoz6BbpuYTTQCHhac3WZXLPfXdKr97flIsvvjjT62c+8xn5+Mc/Lv/6r/+a2etAPaA+UC9hH5KMX0wwyUq972lvrIhNh2v2GRsa6HPjT5yP3fr1NLnDw8ITPqTb58ZBVHZADfyh8QmxNY0/4emE0k0YMKsBDro66eo441jBRc8jvZ7XfWyxlIOnIM68QgFAQPe1DH55mNdkQpB5fcgb57Cg/Ejjl86EFHccTQs5kInz7jy13IgDvUGee98J+OuPptd4CEY+CDfLYu6beaAcOIf4Woem/Cj7WsdR0hY1zYgpiwQzcCbli6Ruwgg46DC+YSOflPXbGhK78KQUmke5qAfUB+ql2gBVt3KhfL3/D+UzX+onH/9cH+vrqX9/rnWZZjmTlJ+kbFyDbfmoQ9Rl3crkGrg03I+cMCLa4/vLVw6UbZvqEut5guwvX3FrtMIVMJXOGmnjniI8nehFgVOsq2lScLo1HBCEZy8WDcMx9uGgw3HHPuJpXE2vYTivYdhHGvNYw8wyYB/ycU7hRvdxTtMjDyw4hxXH2Op57CM/c9Eya3y/ct53330dcp966qmOfaTDYspR2ME5zVPLj2OzPOY+rs29oDxmmVWmXptZFgUldxzINfPBftQFsrmE14CNtspPRurgCT0ccNT9Crxx10apXdkgL85dIk+/WC8P10yXYS/WO8d1jQ2C835pvcIpL7j+UC+oHy89ViIMTvYZ5/WWIWPGSVPb2kTKccoppyQiV/WTpPwkZaP8tuWjDlGXqNM8A5Q6neGb/mKnOOeL18rb+5d7wpM6KuW2pXqjIBt5cAmmAbVjbcvibAlPwXSeZCwTDpCP+zjJvCk7nAYIT+H0pbHjtFHl0qYOnjBEzK/HafbyFfLIs9NlwpxVMmNpiyzesFvWbj/ibHE8YfZq5/ysZcF6rCgvnP5QL6ifckaV1Hn0UsDZTko+5NoGBHdZk5SfpOwkdYM6Rd26dWX7GNOS2/pOTZiyqdOpDTq3wTQAsPnjwQZPeHIP2cNxKVDyik94ClYPGkvtOIzt+8UlPKlWq7NFr4j7jwevHpjqlI65ujVAeHJrJNixX/tjIzx18IR3nNwX1tTWJMMnz5ORU5fKss37ZH3bMd8V50e+ukyGT6oXpHPLwjHlRdefV/146TiJMAzzSqrHScubVQBB+bNadtQp6lbrIKmtTkt+cOVvE8/LvAZ1OoM194ylGsCwve2b6xODJ2fY3pXRh9JoOYuyVTs2bTvqPuGpKFbD67ShAcJTNC1GbZ+CpMsEPNVMni9jZjT4ApMXTI2ZsVJqJtd7OkmU5w9Pqks//VUTnvDeTRCjjhMnqwCCa85y2ZOu20pOS+62P3U6ozX/xU2FyRwwqYNXr5FXWNieJ2fCiP73F1fBIa9c7dht31GOCU8hlc/ohdYA4Sl89f/pvfelZW9zYj5j6uHp1YXLZPSMFaHASQFg9PQGQXqzcae88uBUSn9ZgadlG+Z3DEv47oBrO9mAaQ/u/aAAApk67AF5ueX4HQeVf//Pf+jIT0I2yvapT5/lyMfWr6zu8KBljyI7SXjCcL2jswZUbFpyt97U6Qzf/Bc7hTNV+eBHEoMnZ6rykS8XW8khrl7t2G3fUY4JTyEUz6iF1wDhKbwJDJ1QL78ZNTOwfxO2HUs1PDVuXSdPjp0rq7YdigRPSPfEmLkCOVAM5QUHJwCUW3/QYRbgScFJwQOgExSgggCCKc+dV7kbMIh8hQ80mHoN5eTifBDZiAf5T496wrknsA0KUEHkR5WdJDxhemU4focXDxKAVBBd2oyjTmf45r/YKfAB26Q/kosP8XIJpgG1Yxv3RhLwtHB9ozQ2tQa7GMaiBjKkAcJT+Moq3HeeTOd8yrwl8srCjZHASXtPXl6wUSbPe81xmCgvHDxBh6b+8NA068fGQzSMjKAOtgk3kB8GcMoBgpcsd36lrqmcfE0LqEkCnrxgyQQezd9rW67scWQHrVuvcpUKa28e54ATep4q9U0nd3nU6Qzf/DNFv1t/LmPGPhe498lrOJ9XGGT2u/VBKjiEBtSO3fYd5TgJeEI5uFADedQA4Sl8rRYann43oVbqVm2PBU91q1rlqQm1DjxRXnh4MvWHh1MW4MkLBrzCvB76UQDBCxq8ZCOsnHxNlxQ8eYGeV5iWw9yWK7uXHK8wU6buJwFPe/Ys6RiuV41Z9vTa1OkM3/wzxcq1LfL5S26Udw+vtAZQkAWZkM0luAbUjtWu42wJT8H1zpjUAOEpvA0UGp4eHTkz8pA97XnC0LNfjzwx7pHywsOTqT88LNMOT9oz9Erti52GZwGe8B5RuQd+EED490su6iRHQaecbJwvJ19lqEzbw/a89ADAcV+TlsPclit7HNm24QnD8zBMDw4fZtkzr6PS++p0hm/+mQIa+MkjI+SWu35qDZ5uufMB+ckjz1K5ITWgdmzj/iE8hVQ+o4fWwN69e+WBBx6Qvn37On4LfJesrmeffXZmy27qHHWBOkHdJL0UHp7WtB6O1fNkOv+AJ8oLB1Cm/vDQJDx1BQ0FnSBORTkAURkqk/D0eiTwad/wrANOR2pvq8p7TlqP2KrTmfTDIs/ye13/I7my3x2xAerKa++QPv1/lGdVJXZtasembUfdJzwlVk0ULOI45z179pQJEyZIe3s7dZISDaAuUCeom6QBqtDwdGKYXWsseMKwP8hBI0954cAJvXem/qBDwhPhyc9hSkvPUzWnJffSjTqdKXl+ZaYYx44dkyFDhki3bt3k3/79Yrnu+78Q9BpFGcKHNLfc9YBcN3Cw/L/dPu/IvPPOO2XRokWZ0Ue1C6p27GXjYcOSgKe6xgZ5vW1ftdXE/FOgAfRuwEkvtexq/6PMX3NQRs3eKUNf2e6s2EcYzoVd0izv8Fvvybo3jkvdqgMyof5NGTK51dniGOE4H3aJIxN1gzpKcik0PL08/zVnwgIdghdle2LCg6UOPFFeeHgy9YcHZNrhCWWEE4+eG/OBjjHD7jDzvO6X6xmCDMjX+NhiOKA7zDxv7peTr3GT6nnyegcJQ/YQrnn7bcuVPY5sW8P2qj0tuZfu1OlM8kGRF9kAJgBN//795fTTT3cmTcF2/fr1ziViCN/nL70x1CQSmBwC7zjpUD3kgfZAV8gHSHEprYF31tWIrQ9MJwFPmJYYDhMXagDDw0r1OAGQaqa3yQvzdsukhXtkxvJ9zor98XW7Zfi0HbJw7aHAikyzvFVbjspTU7bLwnWHZNOOt6T96Lvy5z9/4GxxjHCcR7ygS1yZqBvUUZJLoeEJU4sPGTMn8ntPGHLmnqqc8oIDlFt/cAyzAE9uJ17fg/JybN1h5QBBZZnD6ZBfkPepkFc5+VqepODJC/4Afu53xLQc5rZc2ePItgVPmFEPQ/WqNS25qS/dPzL/Hnl70aAknxO5kt2jR48OsAHgDB48uNP1YaIHzJSHaczvH/yw8yHdbZvq5O39y50V+/gALr7jdP5Xb5J+tw7uMjnE1KlTO+VBeOqkYt8Dtem42yTgSZ0l38LzRGE0AD/Fazlw7F0Hjp6fs9OBpVkN+8VrBUyNnL3TiYs0fkua5aFsExfskZnL98ux37/vdwlOOM4jHuKXu15bMv3qqGRBQ5zU9iBuW+WXPtXfeUKhnY/aTm+INHQPH9d9ZeHyTv+oU15wePLSXxbgyQ046FmxCTcmnAE64OD53WDu8HIAovGTgifIN3vmoJcgk0UgXZCyR5VtC55QTvQ+VWtacq0/9zZEm1/4qBiqp71CGLKHniKvBd9owod0+/S/X7585UA554vXOuuXr7hV+tw4SIaOfFnwrSi/pVevXp3yaWtr84vK8L9qwG3XUY8JTzSpJDXg55iPrd0tz8/Z5QlMXhCFYXzoifJb0iwPkFPXeMCv6J7hiI90fotNmX515Jd32PDCwxMa55rJ82TMjJWhAGrMjAapmTzf06mlvPIA5ae/LMATbEahBk4YYCfoQz4IIEAWgEMdPLMXqlw+QeSbspGHTfDT8mnZgw43RLogZUe8KLJtwpNeY5q2YRv+IsYHJKEHCMCEniEMp0vynSTkh7yQB4AN+Y0ePbqIqg98zbbuKcJTYJUzYgQNeDnmDZuPyKhZOwODk8LUyFk7ZfmmI11KkWZ5rzUdltqQ4KQXOLfxgCC9e7Et06uO3HnGOSY8HX9dmtqaZPjkehn56jJZtnlfSYjC+ZFTl8rwSfOcdF6NPeX5w1M5/WUFnrzqPUhYUEAIIssrTpLyk5SNa0lSPuEpzmMi+2kBMugJwqo9TbpN8urMPPBeFaYE5hA+f417tWlRwghP/jrmmfgacDvmmNzgySmtMnXp3tDwhDRIa06qkGZ5mLji+dm75N33P4ikSKRDenPSjCRkuusoUmFLJCocPPXq/U1Zv63Bs6dg1rIGeeTZGTJh9mqZsbRFFm/YLWu3H3G2OJ4wZ5U8XDNdZi1f6Zne3chTXjj9oV5QP249Vur4M1/qJ01taxPNP0lAgJ6SlJ+k7CTLjjpF3Ua1o/1bJ6VumJ77Wkq08YU/hZ4f9ACh9ycNCyarQHl0koo0lCkNZXhv1xLBvea27SjHhKc01Gh+y+B2zFdvPSZja4MP19NeJ90iLWTokmZ5mABi9ZaTZdUyh9kiPeTokoRMdx1pXra2QyfUCyaRidI+BUmTunee7rnvThk28knfC964a6NgStIX5r4mQ1+sc2bXefrFenlx7hKpXdkgOB/kwjUO5U2ToPpDvaB+VHeV3n69/w9lyJhxieafVQBBXWS17KhT1G0Ue9JpydPwPSe/8u/Zs0T+cnynrWdCruQAmNDbg2F6aVowfA/DT9MCdGnQjc4a6WfnYcIJT2mo0fyWwe2Yz1i+X16Y/2boXieFJ6SdtvTkNPhplof3sLbv+0Osyt2+7x2BHF2SkOmuI83L1rb90HHZ0NYUya8I0palDp7WbF3mfEALjrpfD1SQC2OcaB8X9dIb6gH1gQ+boX684lQirG7lAjnjvN4OQCXVA5VVAIH+s1Z21CHACXWKug1rQ5gYAtAEpw4fxQ2bvlLx1em09VDIgxwMl9P3m9I6UQN6ntADhdn/zOF9edB/lGtQO7Zx3xCeotQA0wTVgNsxxyQRLy8JP2RP4QlpIUOXNMsbNnVH5CF7en0Yugc5uiQh011HmpfNrY22yk9G6uAJBYWDjh4ODBGDgrO8du/ePdPlh+5RD6iPaoKTGjCcbPRSYJgX3pOxvf7t//O/rMs0y5ik/CRl4xpsy0cdoi6jgBPs4dCyXzrglKZpydVOza06nTYfClmWBRBxv9+U5usB5CU9eUWar1/LpnZs2nbUfcKTapXbJDTgdszxUdiZK7ynJVdAKrVFTxNk6JJmeQCd9/8c7X0nvT4veLIt011HmrfNbdT2KUi6VMJTkIJnJc5V/fqk9h/xrOiwiOXsecWltJvj/r2n7c3jHHA6OmuAYFhcmm1EnU6bD4Wsykrb+01B9cjJJMS532DLNu41wlNQy2O8KBpwO+aj5+ySVyNMFqFAhZ4nTFuuS5rlYYjdjn3vaFEjbTHszz1sz7ZMdx1FKmiZRDbaKj8ZhKcSDpqf0oKGN+9aLad97DTBgyJoGsbzd5iLopu5S6c571us2LiQduNxf+IbToAmOHKAqLTbBeHpxBMure83lXn+dpzWHjMM5UvrUMOOwiawo3Zs434jPCVQQRTZoQG3Y473lV5aYO+dpzTLS2JyhyRkuuuoo/Is7thoq/xkEJ48nDM/ZYUNH/HCMMcJZu8TgSiM7Tz4q0GO3QwYeEPqwSDMddmIi/ecMEwPjtyBNb/LhH7U6bT4TMiUKECHzmCXB+gABGIyiaJ9E0rt2MZ9THjK1C2cucK6HXPMjjd6brzZ9hpbjnboIc3ykphWPAmZ7jrqUK6lnclzG2XkK/WJ+QiEpwThCUOv8JBF75ONBw5lFAPCLrzoC7Qbn/sSE0PAiUvz7Hru+1SdTkvPhEyJASzh/SbAU54mXdDJJHBdRVnUjt32HeU4CXh6ZmKtwGHiQg24HfM0f5cJtWW7fPigLT52G2XBx3X9PpJrU6a7jqKUtVSawn3nKUpDnMY0OmQP8ISVQ/eKAT5xbRFD9dRmsOXQvZN2s3dnvTNcD0P2sB9X15VKr05nqYY+j+ey+n5TmLrQGQOL8E0otWMb900S8IRycaEGoAEvx7xh8xEZMXNn6OnKR83aKUubDndRbNrlTVywR+pCAhTiI53fYlOmVx355RslnPDk8w+0jQY8SRk6ZE8dYQ7dO+kEJ6n3rMvWIXu0m872kpVpyb3sT53OKA+ArKbJ+vtNYfQOSMT9Onjw4DDJMhdX7djLxsOGEZ4yV/2ZKrCfYz6+frcz8YNOBFFui0kizIkT3EpIs7wDx951QGjm8v1y7Pfvu4ve6RjnEQ9whHR+i02ZfnXkl3fYcMJTRuEJPU948R9D9ibNGu/sh33AMH5nB7oI+qDdeNd5VqYl97JRdTrDNv5ZjJ+395uC1gGuG9+DyvNkEmrHXjYeNozwFNSyGC+KBvr27Svt7e1dksL5n1C/W0bO3ikzlu/z7YXCuefn7JRxtbvLwkSa5UEBq7YclaembBdM+rBpx1vSfvRd+fOfP3C2OEY4ziNe0CWuTNQN6ijJhfCUUXjSh8knz/oEh15lvA61Liu5BXQDpCqZZ5rzOrjyt86QvbRPS+6lQ3U6k3xQpEE23m8CQOTt/aYwukXvE74JNXXq1DDJMhFX7djLxsOGEZ4yUeWZLeQDDzwgEyZM8C3//DUHZfj0Nhlft1smLdzjgBSACfsIe2baDkGcoEva5eGdqnVvHJe6VQdkQv2bzjersMUxwnE+7BJHJuoGdZTkQnjKuONNePLuSQj7sC1afMJTV7vJIjjBbtXpTPJBUW3ZGLp29tlnC4brFX3J6zeh1I5ttMVJwFPrwRY5/na879sU3Xbzcv179+6Vnj17OgDl1QOF68QMcoAevNM09JXtzjpy1k7BhAk4F3ZJu7yw15NEfNQFwAl1gzpKciE8EZ7Y+5BxG4jibBCeusJTFD2mIY06nUk+KKopu0jvN4XRs07PnpfJJI7P/p7T+2vjnkoCnoaMmy2PjZodpooYN8cagHOO3g0MD8P7NVleu3fvnunyq+5RF6iTpMEJZk14yrjjzJ6n/DjBNpyGoDIIT/mxm7zCU1Hfbwrjb+o3ofLSIxe0/SoXLwl4UmcpTP0wLjWQBQ0U6ZMItupD24NybVHU8/zOU8JwRnjKjxMc9SaLkq7o8ISpyPdvnZSLXlcMN/zL8Z22ngmpkIPeFLzfhKm68/T9piSUC11hIgnoK+u6itKWeaUhPCVhaZSZRw2gzcB7lEX7KHfcuiQ8JQw3Xg27zTDCE+Epij0V2W6cacnn3+O8K7SvdXouACrugyBIegyHOOWUUyqyYmruSuSV9EvFqtdK6E4/P1AJvSGPJHQXpS3zSkN4UsvjlhoorQFMPoO2g71PpfXkPkt4Ijzlwnn0eoAyzB8siwxPWZ6W3M+m3Q17Esf/dtGXZMbTt8k7q4fmYsW1/NuXL0hCVV1kUnddVOIZ4GffYcMJT57qZSA10EUDvXr1cuAJvU9cgmuA8ER4Ijxl3AbCOhaIX1R4am8e5/Q4HZ01QLI6u55XfQdv8qPF/NOf/uT0BB1Z/kQuwAkAiGtBDwquLcmFugum3f96/x1Br7CXfYcNIzwF0zljFVsDOmRPe605dC+4PRCeMu44F/3dlbAPVcY/0RtVRHja097ozOaFCRYAUXmyheBNfrSYdXV10v0L5+UGnLT3DNeEa0tyoe6CaVcnPrFxXxKegumcsYqtAR2yp/DEoXvB7aFp6y6pa2xIzI/ghBEJwxnhyX9omo2HcF5lFA2e8I/24cWDnF4nfBA3T/V6ZP498vaiQcFb/Qgx8X7Lj2++InfwhGtK4t0dU8XUnakN/33Ck79ueIYaSEID6HnChDMYsodv6eXlswdJ6MpLZpJ+BOGJ8JQrRzXJm6WSsosGT+0bnnXA6UjtbdaGBlWyvkrlpU6nV+NuKyxv7+xoz1Ml3nui7oJZodpxKVsPeo49T8F0zlgnNPCXv3wgdz84TP7Xl78rH/9cn7Ir4iE+0uVhwQfI29ra8nApFb2GoO1RlHiEJ8IT4SlhG4hyYxYJnjAtOd5xwor9KPpKcxp1OpN6auTxnR2Fp6Tfe6Luglul2rGNey2L8ISp5s2ZEgcPHhxceYzpqQHo0NQpdOy1AIS+etU9cujIca/TXcIQD/GRLg8L4SlaLdpoq/xkEJ4Sdpw5bI/D9vxuvlLhRYEnc1ryA2t+lztwQh2r0xmt+S+fKq/v7ChAJfneE3VX3r40htpxqXYr6LkswhOcfC7JasBPx+hJCgpOWkLER7o8LISnaLUYtD2KEi+T8LTr2FbJygp42rRzdWbK69ZrFKOqdhr3NWTxGPC0vGlBZu2mnM7VRvI4Lblem27V6YzW/JdPldd3dhSeknzviborb18aQ+1Y7TrOlvCkWuXW1IAfPGGoXpQlarooeSWZhvAUXruNTa2yrHlNYn/IZg6e1CnbeXSLZGEFPG1sW5WJsrr1qbrWbZyHZaXSalnd15K1Y8DTsg3zM2k35XStdZTXacndtq5OZ/jmP1iKvL6zo/CU5HtP1F0wG0MstWO3fUc5TgKehoybLY+Nmh38gkLG9HLsBw4c6HyD56WXXgoprRjRt2/f7ugHs8Vhv9zipWOkcUMQZEHnjz76qLNi30u+O125/NN6nvAUvmbQFmC68ijtU5A0qYcnOFpwxtqOtMiOwy1OLw5gZOOOxkysHz3to7Jsw4JMlFV1+kZ7k2Dd1r5RWg9sku0Hmx3dow7U8Q1iXJWIk3X7UJ27t2d+4h+kdun0TNmN+xrMY7dN7Ti0Wd7cPtd5z2n/prGOXVXCXqqRhzqd4Zv/8iny/M6OwlNS7z1Rd+Xty4yhdmzjHkoCnja0NUn7oWDvxJjXFXTfz7EHQBGevLV4zjnnOFADsOnZs6d3JCPUT8cmBA0aNEjOP/98wVbhCfvIC1tzMdOZ4VnbJzyFr7FCf+cJjvH61gZ5cvhjcve9P5A+fXoJXijM0tqtW7dMlRe6hZ7vuvsOeWzor2XFxkXy+v4NDkjB4QVAAWZRNzYeonFknLSP38jd994mffp8I3O69rNlPBwuuuii3FwP6uauu78vv/3dr6Rh02LHpgDmabOpOPbol1adzvDNf/kUeX9nRwEqifeeqLvy9mXGUDv2s/Mw4UnAE/JPcvFz7AlP3lp3AxPgyat3yEztp2OFIEDqNddcYybptI9zJshquk6RMnhAeApfaYWEJzjFWMdNHiVXXH65XHv1VfLi8BpZNWeu7F27Tg5v2sQ1IR3sXbvW0TP0fe3VV8vll39Nho/+nWzYvlI2717T4fQqRIV5YNqKe9I+RsgVl39Nrr26l7xU8wtZM/c52b9uihzdNI1rinSwf+0Up25QR/2u7i2XX/5/OtnU1n0bOno3Ube27CQtctTpDN/8l0+R93d2FJ6SeO+JuitvX2YMtWMb9xXhydRsPveXLl0qAEtdAE8IK7XYgKeampqOLAhPHaoo3E5h4WnQg/dJ717flLkvvih/3NbKtUo6mPvCi0493P2jO2XN1mXO+1tb9q53nF0dxmfjYRpGBhzsQQ/+SHr3+rrUvfi4vNs6h2uGdFD74uPSu9eVcveP/rPDphSg0tKrGcYey8VVpzOJp1fe39lReErivSfqLpxFqh2Xs/cg5wlP4XQfNLYbUPCukS4AlyBD5zR+3G0S8IQy6RA9gFlRhu3hI7n4YC6X4BooHDxpjxPAaduy5YSmKkGTCayoB9THE8MelRUbF8r6bSukZc86ZyhfpZ3dE/YxwgGn7ctfIDRlCJpMyEXdAaA6bKq1QVreXFtVKA/i9EWJo05n8GY/WMwivLOj8GT7vSfqLpiNmbHUjqPcA+40hCdTs/ncdw/b0/efSl1tuZ4nTQvZGJ6n8IR9ryGBeel5IjxpzQffFgqe4BjjHScM1UOPh+nAc7+6vW/oAcQQvlfmvuhMoY1hfOiBwiQeACj3wzGJ45P28TVB74XpjHM/e71v6DXEEL5Xa186AeU27/UxAAAgAElEQVStDc6wUExQUmkoT8JeVaY6ncGb/WAxi/LOjgKUzfeeqLtgNmbGUjtWu46zTQKexs1cIOOnLzOLbHXfz7HnO0/+alZgcoOUXwo/HUeFoKjp/MpXrXDCU3jNFwqe4DA9VfOYXHvN1QSnFPQ4uYEV70D9+Kf3Sv2KmdLQvEiadjSemEjicEtF4Ento981vQlOGe1xckMu3oHqsKlNi5zZNDFBSTXfqYvjFHqlVaczfPNfOkVR3tlReLL53hN1V9q2vM6+v2+N7GudbqWtTwKe1FnyKruNMC/HHuCEoXFYy73PY6MMWZMBnah+vHqG3NfjpWPEiQpBUdO5y1XtY8JT+BrQ9sDrmWwjLFVTlcNhuuueHziTQ7gddx5Xt+cJ+sckErfeerNMrZ8oi1bNldVblzq9T+gpQK+QDYMsJeOEfdzuTA7hdsJ5nL2eJ9QZJpEYOPAmmVo3URY2zpG1ry93hu9hFr5K9WiWsjkb59o3PCt/2vJK+Na/TAob7+z84yf/m+PcYKuQYm6bpz3Y4fzcff2lHftwiB6645td0qg8dZiwvfTCc7vEM/MIum/zvae4uhvzcP8OXWDf6xq+963uHXHMfejEHd+UZ+pu3og7u8R1pw1ybEt3Nu4HyMgLPJW5RXk6pAYIT94KIzx566VUaKHgCUPAME02ZtUjLFUfltx1gHrBu08TZ46TuUunOUOtmnetdr4JVYlhVifs4xvOzG2EpWzCkrveMEMiJv6YOGOsY1Po0cR33JxpzCvUo2nLISwlp1QjH+WczXd21LH3ctS9zgGQvOKqE480ClYKXwjT81G3tt57sqU7vTYvOPQ6B0Dyiqv60DR6rLpHuIZF3drSXSkbD3OO8BTlrs9/GsKTdx0Tnrz1Uiq0MPCEnoste9Y537U5trmF8JTCYXuYJh7fJRrxwjCn92nxmjpnCnPMlJb0zHumfbzVMp3D9nIybA9Ty8Omnhv/tEyfP1leW1fvTEiCj+qi96kSPZphnL6ocUs18lHO2XxnB046Vi/HXh14E5bCwBOcfcjw69kKCwM23nuypTtAjZd+cE2AR7dOw8KTwpRfz1Y1dBfV/t3pCE9R7vr8p/GDp1PPOFdwLux6xme/kQulEZ7CV2Mh4AkOElbMtgVHivCUvl4n9ELh+1qon2fHDZWX574gC1bO7ph5L8l3VNz28VbLDMJTTuAJ3+SCTQ0f85QzcQSGg2JKfLz3VKnhoG7HLonj8E1/6RQ239mBk6+OuglJcNpxjGFkZnhYeEJ65BHW2feKb+O9J1u6g868IAnlxvXinAmkYeEJ6aE75OOli7BhNnRn694gPJW+v4t61g+eor67FDVd2vRPeApfI4WBJwz72ryb8OQeKpemY4WnZ0Y/6Qzdw8QRcHQBvUnOugd4Mu2D8JSPIXsYwqfw9PSoITJ59niZ1zBLGluWVPRdOlsOYSk54Zv+0inivrNjOt4KNtjqvgIAtlHgCWl0tdXrhLLYeHfHlu4UnhQ8FXIUOqPCk+oNW1u9TjZ094fGJ+TQsl9aebeV8FT6/i7qWcKTd80Tnrz1Uip0xJRFghk4Sz2X45xLxYQR6hw371rDnqcUDtdTgFN4Gvb8EOcdlbrlM5xJIzbvXlMReFL7IDzlD56GjnxCJs0a78zkuHLzYgee8N4T2oY4DVwa0tqeMMLWOztwqLEqMGkvEyAA++q4w4mP0/Ok+djYxn13x6buFJ5wXehhUj3qNio82dCTl4y4utNZI23cU3mBJ51tD98ZirooLEdNHyed+SFbfDMJZdEP6Zrn4uQRJi3hyVtbhCdvvZQLtdFW+ckgPKUYVhRa0rJVeEIvwUvTx0jtsumyastrgkkjkpwdzQ3XhKccwtOIx53eTNgUJo3AR5jzAk/qdJZr6IOet/XOjjrY6uybEADHX8+nCZ5QpjjvPdnUnQlPCp4mdKYNnuLqTu3Yz5kIE54XeMI9a+M7T7jHKr0AjkxQ0n1AlMIg9nF9lVqCwhM/klupGsl2PmHapLBxCU+Ep8CTc6QHnjhhhHvWuqwe67C9oYSnwE8pW+/sKByZ8KQQEBaezHd7IM9Mr/nY2sZ5d8em7kx4wrVBB3CC9TqDwBP0rbqCPDO9yrG5jaM7wtMpnvdoVuEJH7DVxQQm9wdtcX0ArUosQeBp0KBBcv755wu2KDdW7ON6sDUXvvNkaqN4+2GBKEx8whPhKRI8vThtdBV7nghPWYUld7kJT+EfaLbe2YFTjveR4LBjhSOvYXDkFaT0vPs7TxqOrQKYKc8EKpsAEOe9J1u6w5BGvX69ToSpHhSkNA7Cdd+9ha5NeTivdWFTb5AVR3eEp/zAk3tInglIgCcTrNALVanep3LwhLJcc801vo0mzmmvGSLlBZ6+dsWVcm2/7/heN094ayAMDIWNS3giPBGecjJznRtMsnBMePJu9P1Cbb6zY9sxr5S8qO/uUHdDJaruYI+Ep/zAEwADPTa6lIInc3ifxk9qawOeampqOoqXB3j6dr/vyFf79nNWAlRH1Zbd+dN770vL3ubE3pkmPBGeCE+Ep6pN/U54KvsM6BTB5js7lYKdJPKJ8t4TdXdigpAouoMREp7yC0/msD03LLmPOzVIlg/KwROy0yF6AL68D9tTcJq3/wPBCogiQAUzuqET6uU3o2YSntIyaUKRy2G+88Rhe/mZtKGaPVSEp2APAo1l852dJKCmUjKjvLtD3Z2Apyi6g/2lHZ4Wrm+UxqZWvVWsb/0cezjx5lCxKBljqGYlF/ewPROQTJBCmXBtaRm2pzoqwoQRbnAiQGntB9sW6jtPOhX10c0tgXtDigwzlb72tMDT8Ra+81RN4LGZN+Ep2INAY9l6Z6dSkJNUPlHe3aHuTsBTFN3B/tIOT3hnIcnFC54AFfoOGwAkyqLpzfeMosgJm8adn16Lzrqn8hAe9dpURtCtl46RNurwu6jpgpY3qXh+4ESACq7xQsHTpp2rne88HW3eTHhK4XDCasOT2sfxzYQnmwBTTVmEp+APA76zc8L5B5CFfXeHuouuO7VQwpP3sD3VT9a2Zm+TX9kr2euEMhCeRMqBEwHKz1o7hxOeLEDEP551Vse/Q/ovD7Zhem7mvzTRkXFp9+6h0mkepdI/9KMfObKx1fhp3OYVnv7xrH/oYh9bFj0f6j2gcU/e58iALFswgjKovfqVR8seNE8t539854qS5Xz4Rzc5eWMbVHaUeISnzg1+qSO+s3MSAABQYd7doe6i605tkvCUL3hCvQKg/IbklTqnNmF7W3R4CgpOBKjylkd4sgBPABETljYvXCQAqrCAAnACBIVNp/G/1+87MnbIk57pUR6UC+fNsmraNGzzCk9w+gEhCigAjK92/5cOaMC5chCBtIhTLl5YwFCAWjjxtx3lURkAILOcGl5uizRe8tzpYIeqE/c5W8eEp/IPAY3Bd3Y6A0CYd3eou+i6U/sjPOUPnrRu07ItMjyZ4DRi8UYZ+Isn5LJrbpD/cV43p0cOWxwjHOcJUKWtlvBkAZ4APAAXAIj27uhxGCiJAlymfL/0gKaoPVqm/KT38wpPAASzx8h9HBQUTAALmqZcPAU5bM242oPkDjfj+O2b1+oXB3AVBcz85PmFE55KPwDMs3xnpzMAhHl3h7qLrju1wbTDU11jg7zetk+La33r59hbz6jAAv10fOoZ5zoAgfNh1jM++41MaNMEp5vuf1j+5sMflm/eeJvc/dhzMmxuo8zc8Xtni2OE4zziEaD8q5fwZAGeAEoAKECKCU041mFRAA/sK8QAdEzYQY8Q0mp8pFVY0SF5OOcnH+lVNtJpDxPyANAp1EGG5ov4OIZ8ja/xzLJrmTRvTYdwpNNyxt3mFZ7cPUZmTxPOQY8mpOA8wkwIUeACcGh9aK+NO0zBB+HYN+W4IQP5o4fJzB9yEYZ8NL7KRJh7SB5ASMuEeHoeYSYgoRxaZneeqgekMcui+UfdEp78G3/zDN/Z6ez8h3nvibqLrjvTBt9ZVyMHV/7WytS/jz/zK7mqXx8rsvTjlpiWGA5TUoufY59UfkWU66fjqBM/RE1XSd0rOA2vXyPn/ssFctHlvWXMitc7wEgBydzi/EWX93HiIx3OcRrzzrVGeLIAT4ARdR4VPhQkACaADazYR1zsK5xoPI2DY0CKygGcKOwgDeIhjsKOpkccBRmk13iaD7aIC7kqG2GaDmmQXgEJ16NpzHBNo/na3OYVnky48YIDhCkcmOdN8FAAw1YBBGkAJAobABKADM4rFEGGKUfzwVbjqWw9pzIVgnDeBDDs67A89zmUX3uVUC7NW8M0D/OakY/mhTSQqfHibosAT0fm3yNvLxrUuWUPecR3droCQND3nqi76Lpzm6mCStxtEvCkzpK7zLaOvRx7naEuzlTlaGuxRl2QN9L7vbsUVW410nnpGOWICkFR01Xq2hWcAD//fP6FctnV15eEJhOgHGC6+nonnYYToE7WnLYHcdsqv/Sp+kjuxrZV1mfbUzgCRAAyFGAUKgAjABTEA7TovhtIFHaQDvFUDhothAFasA85uq95YAu52CKdKQtxzWPNX+OifApMiAf55jUhHsIVuHCMfcTBvs212vCk9mFztj0AigkebhgwAcMNMWZcyACImGBhxgd8KKggHeIrkJhyzH3kjfJhq3FVBo4RjviwO8TTtIgDGMLqvjbzGPFUBuRp2RGm+ZhQhXDkpfnY2BYBntD4xl34zo43AAR574m6i647t936ORJhw/MCT9APoCUOPEEG2tU4S6VnxYtT1lJpiwRPJjhdNfAeufRb14UCJwWmS/p+R5BejwlQJyyM8BQTAAAeCjrYAlYURgAWJqxgX+MqqCiMaLimgRyEodHDqnCk8d0wo4BkykVcE3wg05SDckI24rnPIZ3mbV4P4qpcpNFjG9u0wNMxi1OVm4DjBQMmpAA8TEjR+ApgiItVwxFf60ghBecUSLxkaVpsTZhRuEFanINcbCHXzBPn9RzCzXxxrHGRt8bTNFoeMx329Ro0rVnGuPuEp1KuxMlzfGfHGwCCvPdE3UXX3UkLPLEXFpL84hOeOmsWbWycJa3wNHv2bMEadCkKPJng9OikOvn4WZ+Waa8f7QAgBaEgW6RDesjR+AQocYbwAqD82qC44anseTpi8TtPaJRMcADUKMiYPTjmvhtUTKAxYQfwpLIUWBBmApsCkMIXZCnUYB/l02OUzYQus+zuc17ABDma3h3f1EHU/fTA07QOQInrvPsBkcpFHeg+4iq8mIChAKYQhTiAFjM+wnAMWYhvQo3KN7eQpXEUbtwwhfiIo71EOEZ5NZ32QCEc+zin5UcchSGUy0sG4iKO5qvyFbJwHHclPJV3K/DODuoOjgVXbx1AR14LdeetL9OO/HTnpc+4DoemJzx11i7u7zhLWuHp8OHDgjXoEheeHn300U5ZVWPY3pAhQ2TRokWdymEemOAE2Pnmjd+Xm3/yqw7wUQDC9tn56+TMs89x2v+v33CrvNJy0DMe0mMiCTNt0QGqkD1PNuDJ7BVCw2SuCjJuyNFwTatgBBDR9BpHAUQBCOd1qBy2ZnzIwbHCjZ7DMfYVzjQe8sBqApJ5DnmrDIUlhGm59ZyW0dY2T/AEeFA9YesFAQotCj1mGgUUpMN5BQoTRMz4bjjR+F75Ali0bCgD4irAQL6eU/hRMEK4whHkmvkjXNPinJmHxoMcvWaVjbw1P2y9yhsnjPBkPlazs3/s2DE5++yz5c4775S2trbsFLxKJYUz1aNHD5k6dWqVShA/2/d2LZH9WydZ+SeX8NS5PtC2xlnSCk9hr6kcPAGOSq1uPVYDnrp16+Y8M08//XSnfTRByg1OgJ2z/ue58tD4GZ3ARyHo1I/9Xafn780P/NozHtJDjqbTbZEBauiEesEkMvqHje1tSnuemjv1Ftly/vMiR2EL16Ngp+CW5DWmBp6a7fU8xXH8mZY9T0Ea5D17lshfju8M60ekPv7o0aM7HuyEKO/qAmRCN3CkAJs4zuqS9qnK9Z/mpPTr59jznSd7GvfTsUIQdP13f/d3vgDlhqczzuvt3He496KuuHfDriiHuSL9pZf1dGbEU7DR7d9+9DTPIXtDpi/pJAPyzu9xWRdAghwM3YMclWluiwpQ7YeOy4a2poLB0ybCkx8EuXukFKAIT/EdecJQ5XVYhJ4ndTrtuRjpkQSHxHQSBg8enJ7CVbEkgCToAk6T6ifrulE7DvKHQbk47HnqbJywkThLWnueUC6sQZdy8LR9+3apqanxFec1bA8943FW3MthVm0Tce9rbzPSo9fp0r79ugAOoGfm9re7hAOAgvY8lYMn5F3EpVw7FOd8OnueCE8le97MoYJodM2he37QZSOcPU+Vh4u8Ax3hKduPNAxDUziAswAngYs4eoDjZOom68MbCU+ndDFt9IRoHS9durTL+SABmv6cc84JEr1LHMCJynDDQ5fIKQ8oB09hi689VmHTxYmPnmb0ynu1hV4AVWrYXtB3nkoN2ysqOKEO48BRubTpgqcdjQ6pHyE8lYQnGyAURUbV4emv9nGMw/asv3tULUgjPMV5TKcjLcb4499WbLPeu2JTo3hxXJ3a/v372xRdFVmEp67wVJWKyHGmeYCnctXjBihM9OA3YYQ5/K7U/okJI77fqfcKw/WKDE6oh3IAFOc84SnmVOhRICSraQhP7HmyDVmEp3KP2vSfxwvR69evd/5pBUDhn9eiL+iRA1BCL9CH+dJ4VnVDeCI8hbXdSs+25y5fNXqe3GXwOjYBKqmpyosOTtB7HDgql5bwRHgK3MtFeCI8EZ5eD90gq9Pp9RDNYxiGq2Et6gJgAjhleWY9r7pTOy7nVAQ5n6d3nrx0xbATGuB3nvwtwQQofOQWH7st1bvkdw4f13V/JJfgJDJ5bqOMfKU+9PM6SPuFOIQnwlPm4Okoh+1x2N7x8BATtFG0HU+dTv/HaP7OFBWg8F4TwAnvPORtUTu2cX8kAU/PTKx1HKak9O43pCyp/Ioo10/HUXuQoqarlO5NgPrn8y+Ur159fSiAuuzq6wXpFKw4VO9kzensmzbaKy8ZqYSnw3znKTDQVHIIYFp6nghP+ekB47C9k4193vbwnk+ReqDwgjiGLeJdpzwuaYcnODhJLn6OfZJ5Fk22n45PPePcSB8IP+Oz30i9ChWghtevkXP/5QK56PI+MmbF6x1ApGBkbnH+ost7O/GRDucITp2rmvDEnqHUgBThKT/QYnv4XVR5hKfODX7ejgBQAIq8LwCnXr165fp9L8JTMu88hR3aVql7CbP/YWrwSi5+8BS1BylqukpeM/JSgAIE3XT/w/I3H/6wYCKJux97TobNbZSZO37vbHGMcJxHPAUqglPXGiM8EZ4IT8e2ys6jW2TjX2fbY89TfiCO8NS10c9bCCZMAEB5Td2bh2stAjihnghP3vCE6crjLGEnVfDLK63fevIrr1d4UeEJujABasTijTLwF0/IZdfcIP/jvG5Orxu2OEY4zhOcvCzoZFgh4Wnv2nWpAYZKDotLe1571651huE8PWqIvDR9jNQumy6rty6V5l2rZcehzQ7geI0N/f/bOxMoO4rzUOflmGe/sDjJcWJj85znxBBBnBziQEKe/WzsAEICbewgBEILi1gkBAYjY2wMBgRCEtpH+4L2ZSSNpJGEpNEy2vcFoWW0ABICJDDGwSHYzv/OV5N/1Gr1nel7b3ffvvf+95w+fbu7qrqq/r+r6+u/6q98z73pg6djW6aXzJyfXC02pRLv2ObpTqcGjnhZplSNl0Wr58raXTWy+8gWqXtvpyD7fPWn0PG103myWS+/f7gwL1WAAg6xOpUqHKq2qh5H8TzFMeeJfMX5y9SxT9o6E2cZg9IG7hpbmDYoTq7nMtVxrhakXOPlmv9843kBSuGosb1ZnDLXeFnB0753t8t117WVDQuqDZ5SaHFDLu3atpHhrw5y8ERHF3h6/a1NicBTvX60lk3Vww2e6krD+oQs27VtJcPGDWiAp3WvLzd4yvxOKNorABQL6eKNrlR+zG8qVSj0yyjt8FT3/m756ONP/NmO7DhTxz6yG0SYEEMBt23bFkmKBk+RVGPoRMIClIFT41VaVvC0/90d8nDPB2XS0GEGTymEJ+Ryzz1dZMTEwa6ju3hNlWzaU1sPTyd2x255qtePbjJ52C8MnkoEnpDlvffdJRUTBsq0+RPktbXzZP3uFfLG0a1y4P1dZnlq/P1QdFfxQlcqAAU44VkPD3vl8Ptoflf5cF7nSCzBcVie+o2fL31GzY9NFHHBE8Pt2KL8RQlPUearqbQy1XFYCxL16LUEho3XVL6Svt4UQBk4NS2RsoOnPgNfkFtvutHgKYXwdOtNN8lDPe+XUZOHytR59R3dzXtXy+63N8vBhOCpXj/aGjyVCDzdelM76f5IN2fNnL7gVVmybp5seGOl7Hlnm8FT0++HogzBgrHFDlBAoC6CW5RCyDHTUQzZI4044Ek7SzkWrclomTr2zZs3bzJuqQSIe15VpjpWCOL+vXv3zrjh5GLVqlUN1a3xGk4U0Z9MAGXgFE6I2h5E1Wb500mNq3LmNjDHYe3O5dKyRQupnjTJACpFAFU9cZK0bNlCer/yrIydWiGzFk6Wmg3VsrVurbMSHPogXsvTqfpxtSya9LIBVJED1MJJL0vLlldLn0HPy+gpQ6Vy0RSp2bhQAHKGaDKPrhTmPB05skJ+/9HhcC1+mYQCoP7oj/5I2Bfbr1QXwQ0jB38HItfjUoKnMPVWyDCF8JqXa3nDwBPtRq9evQIBqpTgiTr0A5SBU3jNKgt4ogGmk0Rnae+xbTJ0zAA3t2Z/7WoDqBQAFHJo16a1/Pinj8rg0f1kwsxRMmfJNFm5ZbHsOLTByQx4irOje7p+XCsHVk80gCpSgEJ27dpcI48/2dPNdxo3fYTMXTpdVm19zQE5QzSxZsapU7l2/HKJF77JL5+QxQhQ5QxOaGYuuh8Ux+Dp5HMelbe9kykW77+m4ImSYXmizoJ+pTJsz1s2BSgDJ2+tNP2/bOCJBpbOEtanbQfWSc/HergOOxaPtHuhK+X8YQEEnLrefZcDp5GThgjDqxq8or29Wejo4ko87o7uqfrR3XW+sV6Uiue5cikHVkPAqevdHWXgyJed1YlhoOgU8512Ht7ohuwB5EEdr2I813RTX54hgBGG8DEMLu0/vOnhHKJUF8ENU/9RPXulBE/eOTZh6tAfJq3rPPnzmcRxGHjKJh/FPGzPW04Ais1+4WugrOCJDjjWJ7y34Yig7+DebqgYc21wVoC3N9xls1irbfHUAW7iqWfqm3pv0eJqZ3F6ZXgfNy8FqxMWghWbF8uWfaud1Smp4VXB+nG13HZTO+dEAs9tuL5m7SDb0lMHuJZHNjiHQFYtWjR3FifAadj4ATKxcrSzZC7ftKhhGGicc+ii6gBmk074Jr/8QhYDQJXLWk6Nad9/ffaJvH1ieyQfNEoJnvJd56mxOi+3awZPwRJnKQT7ZVcDZQdPfG1msjjDwdbsWObm1jzx1I/k/m73yHVt27g1YS6//PKi2V966aXy53/+524755xz5KyzzpIvfOEL8rnPfU6aNWuWynLgjrxr107S/ZEH5KWBz7kOLk4iWNtp9mtTZem6+W5Sf9IWAuApo37c31mua9sqlfXZmL6ed955ThfQiS9+8YvuK/yf/dmfybnnniuXXXZZ0ZUnU1lxR961653OOQRznHBNzjwnBSd0CqsTH06Y75SEJTMb+Mk3bHbNfvmFxmMdDhjSaNUxcKrXx7S7KtfOUlxPT6aOfVz3K8d0M9VxrhakXOOlqe75uMQ8r3Lx6hlV3W/f86YsWr82ko89Qe//VDiM0Iwx7ItOEy6KASicEQBQuMRmMvmUueNk+IRBMnTsK8JCrQNH9hUW10zz1qLVVfL3F3/LKT8PgHe7ps3Vqcw71gA21nNimN74GSOda/KqZTMcOLEOD+DE/LS45zqpbrAvNf14ccCz8g//eLpu/PEf/7G0uq6lXH9Lm1TqRy7PG7CEO3J0CmhijhND9XYteEq21QwUdGr7wfUl5ShCdfeDJY/IxzW9ononlGw6OiyO9aDS9OvYsaOwkb9y/hk8/Y9yFn8iZTd4Or2a+aBEvzGNH5ZOz226zug7OI59quBJO8gM2QGgcIENQK3dWSPL1i+Q6lWz3fAePL2xJgydrylV41O93XBrOznzzD+Rx3768CngxMPwtxee78793d9fKC1bN5dHf9LddSzTUCbqlrlN1DXQxHwUhuphHaCTCzgho6QtBABUseoH0PDUc08IOvF//vqv5C++/CW39wL157/weacH6MQll3071bqdrZ7yzKJTfAhh6Ofa5aNEO2QnFnSTt7aMcsN2S2muE22aljFdr5V05iZtAEWHpVwWwW1KI1SPo+iIlNKwvabqza6HrwGDp9PritEc9BGYG2q/7GogirYqUxqpgycy6rUw0EnHyoH74rW7apyHN1xks5gmFqmFtXNSvd3e6Van+FgYXhz4ywaAAqj+5vxvyCO9usvPnu8l9z7UpcEK8eWv/KVc2eKH7hxf6JMuI6BE3TKUirqu3bbEQRMgC9A6N9L/va4TssqkXHGdLxb9mLlwkpM5OoCskSt6wHGfwc/JA4/c685jaaJxRCeGjOnv9IFjwiYt+zjuhz6x8cyyjhPuyPGqB4jv3zhaACftmLF/d+MrietUXLpKulq27Jr98g0NQNFhYLhKIX8GTqfWvupxFM+KwdOpdWtH9TWQCZ7O+vKFwrVsty//XeuirlodsqcfWG3oXnbijKKtypRGKuGJzNJB5gs01g0Aik4786C27l/jnEmwkCZDfQCqNG9dunVsAKaHf/yAGwJ31tlnua/vdJRbtmnurt98+/XuHGXhPGG/98PvCmHZCKfx4y4v9UrHljrGcQfQBMC+cXSr86yHg4ikLU5+BU6jfgHMr+oAACAASURBVAAHyA6Zn9/sm3LuV78i3770YnfM0Eeus3Fdr3H+6Rd+4o6xyHCduDSWyD1uWSeVvlen+BCiOrX7yBYH42/vnSXHa3o1gAYdtfc2DZAj764vepDSTmd2zX7yoffs2SMdbm8vF114QdadlGw7NRY+XEcQWXRof5sgm0L/VI/9bXEux6UCTziLoK3GRXauP+0Y5xo/rnh4ESRvrJ2U6w+34qTBPsyPdiHol+vcpVzjBeWhEOd0yJ7qiA3dy04KubRNYeOkFp4ogFoYgCg67IAUbrGxfDAnis48na80b/f3vMc1Hqr8WJL4+u7NM8d3dLnNhWMfdP25vk9Lu5taydnnnO3C/dvVPxDSJj1vWlH8p17ZqGPAlTqn7tUDGnJhC6tkcYUrtH4AmNQ/cmh20QXytfO+Kpde9k/uGBDiusqD/8hWw3Bdr7FXmfv1xRum2P+rTvH8BukUenL08GJ5f91LJQVR2unMrtlPNnRFRYWcccbn5Lkfd5UN8wab+/+UrJ+2cd5gee7xzk42yKiQP9XjKNrzUoEn5AFA5QNPpEH/II0/ACofeKJMgJPBU27SxQqv3khZF6/Q1vjcSlGYWOu310ntrk2x9VNTDU800tpBxtLhIOrESZCiQ8+6UGneHvpRtwZ4uuueDm7+UGP5ffLZx+Vr//urbthe7wHPBpYN6xvXSO+ibzVz6TPMj3vhvayx9MNeo24dMB1/3UETda/WpjSAk77Ak9QP6p36pZ6pd+T0L//3UnfMvDCu++sX99vIibBh5I8cFbTZB6Xpv0exHDemUypP3R85suI0iDpe+0xRWqK001mYV0jTd8WqccYZZ8iE/o/HDk13t7/mFP1WXb/y//1T7Pcu5nXUkA1wW0gLlOqxPqP57OOAp37j50ufUfObVvgcQ2Syihg8NV6hBk+N10+Yq8x3KneHNWHqyRuGtgAPnPm0U43FTT08+TNPZ7mYNhwvVK+slKta/pvwwgibd+ZBnff1rwmOA5qKx5C6ERMHu2F9hKdDwv0Y5sf9w94zUzi/DNJ8nKkMuZynXqk/6pF6RR7/+t1/dsfIlOuZ0iVep3vvcHGIv3r70oxh/WkQng25ZxPPn07aj8PoEcP2vJYoLFNh4qUpjHY6vQ17mv4zLAyLU1JwASiN94Aa/3/5WKfE7p9UOaO+DxYoZFWon+pxFM9WHPC07dB2eff4R7FVT1rhife9/latWiXNmzfXw6ysPg2RPH/M8uSpjAL+NXjKvvJ16YIo2qugNIoOnoIKUQzneFk0v+aKrDt+QNGNt13ngKjzfXeGjq8wRWefxpV7E59OfTHUVyHyuOvNUyH0FFhaNVu43lS+qF/qmrgAcJg4/jSJj/z858v9+J26OUVZJ9rpzL75TyYG82oYHhZ1Zz9Ten/99XMb7gU0LZvyktsyhbfzC1x9MZzyombnJ6MUAXdRPY6iHYoDnshXnL+0wlOcZS42eGL4JHnWX7HPedJyGDxpTYTfGzx9tLcoO0z+Fwyd6HO+eE5OnWnSwk27F6JY/8p/j8aO/TAFVAFTnM+lg9/YvYrlGuXWejnNshQSlrSsQJOmkSs0aVroSbby1bjltscSxTpKx/ZMzep5SLKetNMZvtlPNiSdwqQABVBi6B73A5y8FigsUnzo4Rz/1RrFnvN6TfOq50nPG55wHGs4YO2NmtHumPtrWpoPvS/XuDfX9d6kodc5zzHp8Z/wHJOON7zeN459pg58EhqjehzFs2PwdKrE0Kc0/tIGT8CRDgMM2jM/C+ub/gyetCbKb2/wVCLwxAsH+OGlke/Lh845jS0WilwtSUAD6ahlCksJ+cu3459v2eKMHyUskU/SU2iiHqOoOyAZCIuzHkopbe+Qvg/ndXYe+tJWPu10pvX1lSQ8ARq0XbopgAAaAA5gojAEyPCfjescK6RoGD1PevwHdBS+OCZ9BSnOq9WLe+l5va/eT/fEJ7zeU8NznvsTjv9s3v96Lo69wVPjH1PjfMYy1b3NeWq81hVyGg9VfzVTHSsEAU8867169QqEKIOnMLVcHmEMnkoInnIdupepM0hnHeihs50vlAEBpAeQYflgU5iiQ58pD2k+HzUsaVlJl/qm3oGmXAFW0/PukQH17j1n/xvvMDGc74OF96fWQx9QB0D912efpPKtlSQ8KeQAFl4Y4RjQAVYURPzgo3E1nMIJ4b1p8V/TAHIUfjQ+sMR/0iENwhKOTfPFNT2v9/HuSVPTJRxpeq/H9T9T5zIJxdKPAFG0R7SfcbRzcdZDUN2rq3L0yWvxyCYfxGXL16tdNvcMExark+bNO48qTFwNAzhpGmE8EgbVMWkpPPGfNE+cOKG3OGVvw/ZOqY6yPjB4KiF4otOdz9C9TC8trEh04nWeTaZw2Zxn2Jh25MkzDSBghSODtMKUH5bIN/WieeZ6NnXgD0t80qKeSTeOeqBDkS8I+/NdLsdAFB75tJPHPg1rRTGskLz8/qPDqXyZJQVPAIkCCnCh8KGg4QUdznGsHS9vPP4rHBGOMHqsYMR57sc1znFd01Lrk/e+XOOYsHodCFPA0rC6J++aJ93rtTj3mTqXcSvWHz457nSYjxRRtCdxwNP4qqUyYU5tbFVRqLqPrUApTDhTHXvhKZts5xovm3skEdbmPGVfywZPJQRPvHTi7BzTmSd9OgLMZ4py3gzgwAuPdLG4cA+FqSgtL9m8mOOGJc0L96HccUKT3ot7AMN6bPvGrU5B9RPk5pzhfYVacPfE8vrFf393fHf2b4AEYiQFT16LUBBgKLToNaDEC1i0OcCNF2qIo+BDPCBJYYZrhNXz+p9jb1688bmf3tMbxnte0+M+ei/OJbFl6lwmoCbyH0fXS1ROW+KAJ+0sxVUXhaz7uMqUtnQz1XGuEJRrvLTVi8FT9hLR9iCojxDFOfO2lzCc8dIAOqIQXqY0gCYsJHQKgKkoIUrvqeCSJEzpPSkbABe1ZUnLpnvqTaGJfRyWJr0Xe8qHzNh7z9v/7AGKOguCKCxTSdcnHc5P9lUJX+/T+IsbntQahG6zcewHDaDHCzdc98fTOF4rElDjjQfM6H00nF5X0OK6WpS8sEX6hOU659VyxbECleZBrxFOzyWxz9S5TEKvPvv9p5E9OwZPSUis+O6RSb9zhaBc46Wt5gyespeIwVPCcBN3x4qOMZ3+uO+j6eu8KIaZ8cLS83Hs1XMd96LDASQCHblaphSWFNCoN7V2ATJxQQb5VWgC1OKAz6D6575AYdA1O5cbQFFv3rWiCgFP5OHjTz/MvvVPKEbc8BQnVABLSQMM5QGegiAwzrKSdqbOZRKq8unvPomsbTJ4SkJixXePTPqdKwTlGi9tNWfwlL1EDJ5KDJ7oSAEAcYOMv7PN/RgSRuc8qXv7YQqoAko4HwQ+hYIlrSvgBUsd9QR0BuVRw8ax557UTxxpW5r18BU0dC/oXNT19etPgyc4Z/9KiD5GMcMTH2niBhZv+limACe1ZnmvJfE/U+cyeq04PUU+AET1XBQjPJ155pkOXpEB289//vPTK8nOZFUD1KHWJ3vqOOj3t9/pIMc/yG4BZMITrxR+Bk/ZS9HgqQThiRdH3EP3Mr3kFBDodNBRTxIQ/DD1tfO+Kt/53mXyvR9+V5pddIGzyCVhWfLXjVp8CgVNmh/KTh3pse1ztzZlU3fMSWIifJxrRR3/5Gj2rX9CMei0JNHxj/IeWJtow9iSAhkdRpjU/YLqC1kV6vfBb49F1jYVIzwVqt7tviI9fzZYrrzxkdAABTgRnnil8DN4yl6KBk8lCE8AS5JD94I6knE6lwi6H+f8lqUzz/wTB01/c8Ffy1lnnSlnn3O2s/xggUlifpFCExaxQlia/PUEvCU1RNB/73I9fvvE9kA351HXx5Ff78++9U8oRjHCUxBYlMO5QsATLvY/mt9VTqz+pfC8RPFsGDwl9HCXyG1+//s/OBDCksRQvKY2wgFOxCuFn8FT9lIcMb1G8MAZRXsVlIY5jCgQnBVi6F6QAnAOcND5RFFaPhSWGAqnDh4asywBTOSFMORH8xQlTGmeyA/QFGV5M9VvmPNpAOow+SzVMHGvFYVV6+PaZ+SzdzZl/xaIOYbBUzKe8qKAu0LAEzqLq31c7kf1/Bs8xfxQW/IlVQMGT7mJM6r2Kigdg6cCwVMhh+4FKQLngJR85kUpmGSCpUz3zXQeKwz1xPBCYIchOgpfWI0yxQs6T97iXqMp6L5hzwFxwFzY8BYuniF9Rw8vFtyaR71WFPBEmv++vm9ub4EYYxk8GTw1pl6fbBnmdPfdbRWRtU8GT43VePTXDh06JD169Ig+YUsxkRoweMqtmuPsJxk8FQie0mxpoCMPpABSAEcmBYwaljLdR8/r/bKBqbRDk5YNcDVnEfEAkdZxNvtMbs5zdS7BcCfgieFPafsZPBk8NaaTv17c3ekuz0Q2z1BjYQ2eGqvx6K/hmIEOOBBlv+KrAYOn3GTWWBuU7zWDpwLBE4IDUHiJ5CvEuOL750WNnTbcDXOLyrIURb4BPQAPq41apoCQQaP6OhgBAMlv3HOo8i0LupCWIYT5lqWU4gdB1Lu7xuf0zOKUAoD6zzdX5PYmiClWWuFJHUKwV3fkulZTIZ02RDH8Ltc0kh62x8LO6GyUQ/ZoH+KEJyaK7z30zmlPy/Y9b0qfUfNFJ5KH2U+YU3taOh99/IkwnyJMfA0z8NXFQjz/b1r1+qzSIb1sy/bos8PlC//rTPd+/Pa//rDhfqVQNq1f/77Uyob8nuw70cmu1MrmlV3UZYuzL2LwVEB44gVCpzlOAeeTNsBBh75lm+byF1/+kmt8//IrfyH3PNg5tTDy6E+6y7cvvVg+/4XP178sLr3YQRTlwAqVT33EGdecRaTH6hQkZyxHQBMdSYb2BYVp6pzG50t+mn5phScAA1jyrqeEm3DWdsoFPnKNl8u94oqTNDz9pvZZp/NRDtnjOYkDnoZMWeg6ly+OqpKqVbWnPaO1uzY1gIO3w9bY/6AJ53Xv7846HfK07dDpzjY0z43lwXstl7L98Jpb3LuQjxB0woEp0iyFsnnrxvu/1MrmhadSK1uScmvqHZ3NdYOnAsITnflCe93zKovCkt+y5HXYoPOisPSkyWqmLtiBEPKooOS3THEdy1SaYIp6J19eWdj/dMOUXz44nPCfCzpOo/UpzfBEh88LIsCU9zjs/18+1qnBehU2ThrDJQlP6ijiw3mdI/Oyp89EHPCkadv+ZNvJvGH6GF4rLu93q6OTdVQMdYEMtU9TDPkthzwaPBUQnlCwQkJIGFjK9BAAHzhxYCskRKm7cT80Zco34YErLH68UIjHy8QLiJnixnWeukyzBTKucpdKulii3NCmhfc761Rj5VLHEWma+5RWeMLi5IUlLEdqhfKu8wQYKejwXzuKWKk4r8fetPiv5zVN0uccafA/jZaqJOHp45pe9VanHIepNvYcGDwl03lnSLvque7piNuSGMnUf2PPQDbXDJ7SJy+DpwLDU5IvEWAJSGjMspTNA01YtfjQMGPRSaJR5guMQhPw6bU05ZJ/hSkaKDZAJkmY4gXXmGOObMtk4ZNtaIEntSgBUWzvbRqQ8euuhk3L3Ke0whPwo3ObgCWd9wTc6HnvMD5gR88TRuHJm47ClKbFXuMAUfzXdEhDoSwt+6Tg6dO6aqfHHy58IHKrE+1Tku+9cm4Pea/wXuadpqMudORFOddLsZXd4CnZd3oY/TB4KjA8xTl0LxMs8eLiWhgFCRuG9ICyOCGKulKLF9AUx9C7KN2jh607XmyUJWx4C5e+hhSZMHTvxPL6r/VeiPJ76CMc17E+/eGT4wWf/pRWeAJsABigRq1A/FcLElBEe8M573k/6JCGwhL/NS3CecFK00gjNGmZkoAnXRQXHcVSGkd7Y/CUbBvGx0bemXHI0tKMX5YGT/HXcbZ6bPBUYHhCYFEN3UsSlhpTNKw2fOUCCnhJNhY2zDWgiS9opEldRQ1+jeVBgY2vdfmuNZXpPpQrCYtdpvvb+Wgb5jBrRSlkMTSq0L+0whOQA/R4YQew0eFHajECLDifCXqALcCIcN7/HJOGxmPvvZcCS5r2ccMT4MRaZIATOhpX22DwFG2b05ScDJ6Sre+m5JHtdYOn9MnP4CkF8JTriyQtsJSpIVCIynVeVCGhKVOZOI+VCJgD5OjIAYkc84JqLF7QNWRI/QRds3PpazCzkUmQm/Pjtc8I5/Heh/tnOql4NCvk76IL/1Y2zBucuiFqgA2bDr8DYvyAAwxx3Xvea03y/ie+hte0OFY44l4KWXouTfuN8wbLRRdeEKuq/P6jw7EO19PnJ9d3nsa3fXZto8FTdvWVNv0yeEqf/Aye8oSnN3+1R/Lddh6u97rXVDrVKyvdXJwbbm3n5ubQ6b6q5b856w7XmoofdYPQ1P30OrBBngGNTvfe0WQ+qQ/CYZEhXpiy6b0y7aMsu/8efpgCqsg/5/1h/cd0Iiij/3xUx1GW29LKrQFn2N77615ynVJgiY1zbPz/aPFDBR2+1+H29vLc450bICItwADYqFXImye1PLH3wo6eB4I0PPE5r5AETAWF47yG0bhp2yOjDrfdEis8/e4Pn8mxo6tzdscfto0weMqtLQlbv/5wBk/J1re//vM9NnhKn/wMnnKAJ3/H9vCHb0i+22Xf+WfpM/i5U9IBGp567gnXuebhuehbzRwsEY5r2dzTn+dcH2Z/OtnkgTx7Iap225JTyjClanwDNGHJ8V/P5l7esJrnXMtMPE1D9970/f+HvzrIWaKQKR019sAU53cc2nBKmakPv9z96eV6rHnVfT7lt7jRNN6s9YT1SeuTIX7H3t8sf/ivP8TaKW4s8T179sgZZ3xOJvR/vAE60gYO5Z4fZIOMkFVcP3Tw2G8ON+im6mgce4OnaNqTsLIxeEq2vsPKJWw4g6f0yc/gKSQ8aQf00Ae75eCJ3XLw+OuuI7zj4HqJYnvmpafkihY/lMd++rC0vv4aOfucs6XZRRfID6/6vnBt2rwJWd9n77Ftsu/d7W7b/+4OOfD+Lpdv8k+HnDKFeXj9ZSdNICCfclNOwILyMbyv/V23yFe/dq4rf+22pXml/caRLaeUu+69nZGUO1eZ96940ZXrksu+7cpMOZExdfA3539DRk0emld5vXKISuZh9MLCRNegv/dWjfz+P38TV7+4yXQrKipc5xzrBsPDyh1W0lJ+hlMiE8CpYuiQJuWYawDA6fgnR0O9D6J47g2eoms7wsjD4CnZ+g4jk2zCGDylT34GTyHgCXgANmYtnCKP/+RRue6GdnL55ZdHun33u9+Vb3zjG/KlL31JmjVrJpdcckkk6ZPXR3/8sEyePU7eOLrVQYWDiZAApWWfPHu89PjRg9KmXetI8qX1981vflPOPfdcYU8d6Pl8963btpbujzwg46ePdOUGKnIpdxwyv/jii115kfXXv/71SMtNveUr82wadQsbTaOOReqdjw8Kw6aYd1KIH1YNhoVd1Ox8wTGBbYWvA2SBTOKwOOEc4pMtw+Tj2mcSszhpe2HwFE27ofXZ1D4beBo0qm8gRG8/uF7GThseeK2p+9v1/ORt8JRf/cWhfwZPTcAT0LT77S3S88c95Iabb5Bf9HtGpiyZJgu3LZble1emeqveulgmL5kmT/f9hcv7Qz3vd17dsBrtPrJFsEZhTclkheL81rq10q37vXJLh1vluUEvyLSaGbJ459JUl3vxjiUun+T31g63yj33d5VlG6qdtYxyYzmj3FgRg6xv5SzzOBoZS7Pphl/dmR/9YJf8etmPBS98dG7tl3sNtG3bNvfIJR7T61Xvw3mdnROTJJ9Tg6em24Qo5REWngCkf/jHb0mHzreeAkmZzkeZR0srs04YPGWum0LpjcFTI/BEx3rJ2vlyS/ubpUevh2Vl3WpZ+9aGotzIe/cnesjNt90kU6smyNb9a2T325vrQSLACkXZFyyvlHbXt5PHnn68KMussiL/ba9vK6/OHO3K/fpbmxoAyg+O5SzzQjVCdt+TLwYgShfRZR2otCykW2wscejQITdElr39TtYA0IRO/Xpx9wavesy7S/oZNHg6+cwnUfdh4Ym8+EHJf5xEfu0ep+qHwdOp9ZEG/TB4ygBPdKLnLZvlhpE9N/iFooYHhQj2lIWhXaMnD5MNb6x0DSVD2pgPpSBB2SsXTXXh+ox4uSTKTjkod8W4QbLu9eWu3AxjVAsUD2M5yzwNjZHlof4FgRtzXQcKb3xYoQyiTgJAmH/9+vVz8NSjR48wwcsizO+O73a6pB4f0TG1eCb97Bk8JdsZzAae0AUvMAVZopLWl3K/n8FTss9LGH0zeMoAT4BE53vukheG9I4VHn4x6Fn3ksd5wnUdro/1XgpRzw/uLXd2vkOWrV/gQALX4ACUOpKg7Hfc1UH6jOibSH40X3HvKc9tt98qS9fNbwAoHcIHOCUl87jLGZR+UzIP01hYmGQb8Hfq5jRYoRSiPntnU1l09PMtJEP2aFP/9E//NN+kijo+liY/NLG+GHPsCvk8Gzwl25ZkC0/oBt5ueYb+6htfL6iuFFJP03Jvg6dkn5cwcjd4CoAnOtIjJg6Vm2+/JTF4oJECpII6vnGco2zP9H7KgQQWKOZB6RyoYWMHym0d2yeWlzjKlynN9h3by8+fe7IBoFiI1wHUid0y/NVkZZ4pj3GdzyjzE8Fzv8I0IBYm/kadjq4O5VOrwW93ThADqWCu+dWvftXwQYp2tRyH7gFM6IgOz0NvmNuELmHZLPRza/AUf7vhlXG28GSWp2Tl45VV0H+Dp3TJAxkZPPngCXDac3SrtGp9rQyfMTIRgFDrU1yd5qB0Kdu1ra6RGdWTZPmmRbJpT61zIrH9wHppec01MqpyTCJl17wNmzk8EXgcNXuMtGjZwrl+r9m4ULbsWy3MgcL6Rn0kJXMtd5L7IJkzdBEvhDpkM6jhtnPpaLiDIIpOcZBjiT98cjyYLMrgrA7ZA5zYOnbsWJKlRu6ZPDOy8LKCtlqa0gBN2pYATyyCfuNt19mWQB00v+YKYfF2rf/G9l5wIpz/uLG4di2ed4XBUzz1mo++Gjz54IlO5OhJFdL1ga6JwcO/fP8yYUuyI829utzfRZ56tpdbcHf19qWy7cA6GTpmgNzz4N2J54Xyz6itTOS+dz/YVZ585glX7jU7ljknEsyFoj6SlkHS9/PLHIvjnne2Oc+D6H4+jYnFTaaBZ4I/IMWcFawJH/z2mPz60xPy6e8+ca7OWbNHO87Z7IMsWf++vm/WaeH+2v9jzlY2eSEsDjP8P4ChqXQOT7xRVvZrKV88839K1bNXuP+lUragsv/He9vlt5/9Rj7+9EOnCyx0i368u60icS96YdsA2l0Ayrbk6mDExMFNtu+ZQCnT+bDytnD5vRsMnvKrvzj0z+DJB0+4r370iYedY4WkOrZJD9nTcuE8osu9nWTmwkkNw/e6P/qgMD9GwySxTxoenx/S281nm7Vwsiv32l01QrmfeeWXsubN9YmWPYn69d7DL/PNe1c7r4vqsj6ORsbSjK/hD7ImcM4/zC+o0+0/xxwrv6yO1z7TJKz403l/3UunpXNsz9Ss0wEM/fmhbP77ZTr++l+eKduHt3XhS61slNmB85JHJKhs/nqz4/iewVKr28bWeXri6R+d9kyWWvnTWB6Dp/Q9vwZPPnjCaQKLjE5ZOi2RTrQO2VOry/1PPNgwXt/b6Y3jP2Vs066NTJ4z1llhmCDa7vq2iZXdW1YdYhNHOf1parmnzB3nyr1q62vSqs21Mn7Bq7L68LpYAQo5a1nZkzeGLPKf+vDnNepjLbvKHHDE+oS3RT4cpPHFYXlK34ujGGTCsDAsHMWQV8uj6bjpgOlAJh0weEqfbhg8eeCJ+U58gb/yyiukauOC2DuydIzxsKdD9vhPB1o70+yj7jx706OMV1x5hYydWiGzX5vqvO8lWXbyklRZg8o9fsZIqVw8xZX78su/L9NXzpLVh+KHJ/KCrNkoP/IHnuKWN/f1ynzOkmmycstiN2zROQsxxxHW0fa0h5le5MVy3uApfR2OYtEdy6fpTpp0wOApffpo8PTfnQXAiQ3HAawHtHDb4ljBRTvzanEAmtTbnlpk1BqlYaPeU0bKOnTsK27oXtWyGYmWnfIAEF/7q/MSqWutPy338AmDXLnnLp0u3/nOd6RyzRwHT1ifNGwce7U+IW8F5zjuE5Smln3YuAHCsEWcZjB0z+uyPU0vDctL+l4axSKTv/v7C6V61WwD4hIC4mLRPcuntVtR6oDBU/r0yeDJA09MmOcLfFLWF7W6AEts2tkFJpLoVKsVomLCQMGV6YIVsxIru7esAJQeJ7HXco+cNESmVI135f7+978nU5fPkNqDa93QvTjzATQh46TLTZm07MNfHSTTF7wqS9bNc4sl4zSCoXt8QIiy0be00tfol4tMDJ5M98pF162cpa3rBk/pk6/BUwA8JTXnCWDyg5LXKhFnB560mf/Sqk0r8cJT2+vaJDbnSeExieFq3rrUcis8zV8+S1pe20LGVI1LBJ6ApqSG6XnL7ZW5wVP6GmPrANXLREcB5Lt38LSy0n0QyDetTPFNZvYcmQ6YDsStAwZP6dMxg6cAeHr4se6JeNsDnOhEezu4SQ3Z4554XuvY5Q4ZNn6AszwBEd0eukfwRufNU1z/taxxpZ8pXbwJ3tn5DvHC093dusjPXn46EXjSoZqZ8hfneZU5wDxt/gR5ba1ZnuJ+8Vn6Tb/4/HDCKIB8t4u+1cw5hMk3nUzxNc8m36bla3VkdWQ6kLsOGDzlXndx6Z3BkweeeBmyYGj9mj/xrvOUycLkt0TF2ZHuen8XefixB0WtEAtr50ifgc9L14TWeSrU0LW7H+gq3R99QEZNHuqGrjEv4qUBz8udd3eMfc6TWtvins+WSW9U5qz5MaN6onOWsXHPKtl7bJtzlsIzRfD/LQAAF3BJREFUEFdjY+mm7wVQSJkofODlES+ne49td54fdxxcL1FszS66wC2GHUVapPHGkS1ubiDzAxnezbsCB0PkHcCyZ8f0u5DPk927dPXP4Cl9sjV4+m94ouHh5ce8j21166RV62tl+IyRsVlggqwuXqCKe84TZbvm2mukf8WLDiJwHoAVgq1ly5YyavaY2MpOx95bVoaxJTV0b1TlGLm6ZQvpM/h552WQNa4Wr6mSmo3V0qLl1TJs2vBYXZVTVqAxE9zEed4v88pFU8xhhOf5t85Hci8o2lqAY8KM0fJQz/ulddvWzlkNDmyi2r7yla/IJZdcEll65It8PtCjm4yaOEzeOLrVfXRQiAICDaCS0yF7Xq2uG9OBTXtq5ZHHe0jbdm3kBz/4QVFv559/flHnn/pHDsgDuTQmt2K5ZvDk6zzxJZGv8ANH9Jeb2t8cWyc3yOqiVgmGdcVtmbj59lvkkV49BK9ruOzG096KzYtl3evL5eXBveW2ju1jKzuA4C2rehmMExw07fZ3tpdHnughQ8b0l1dnjXLlxuMc1pe+Q16SG2+7KVZ4QraFcBRB+YNkvnr7Utl2YF39V/QTts5TsTTcxZxPoGn19mXS+e5OckenO6T30Bdl+vKZsnjnUlm+d2Vqt0U7lsi05TNdfu/o1EHu6nqnMNR5+8H1bqFp9VhpEGWd+mJ+Pksh73TQmzdvLoNH9pet+9cWXWf9jWP7ZNGWfTJ2YZ0Mrjwg/acfkCGz69zxa1v2CdezkVPU6XHvTQf2yZw1+2X43DoZMLN+4//sNfvcNX/+kAPyQC6lAFAGT354OrHbDcmgQ9mxy53C/BjteJfKnjLd3rG99B/2Yv28n7njhCF7LCiJ22pAov0dt0mfEX1LquyU59bbb5EBI/o0OMmg3CwOvHX/Gud1Dpk/N+iFkio3eptJ5ut3r3Du+W2RXOvw+V92cRxjmZk4a6xcddWV8tSLPyvq54z8U44ho1+RLftWy643Nza4/LdhfPY8xfH8WJrh9AoLBx31TPW16+heWbJ1n0xbUScjquocnIycd8AdL9u+T7ieKW6m8xv275MFm/bLhNfqgQfo4T/nuJYpnv/8sh375JUZgNKbMq3miMyufUfmrT3m9hyPWfCmu75iV7g0o06P/M5eUydDZx+Qia+9JVOXHZG5q99xG/8nLHpLhlQekLlr9weWGbkgH3+5i+3Y4MkHT278/fHX3YtwUuVYN+SDSfalAk6UheEnvZ5+zFlfJswc5RbIxfrC14AdhzY4S8TYqcNduD4jXi6JslMOyv34Tx9xDjLGTR/hyr180yIHTa+/tckB1MRZY8pK5kDj7iNbGuZtFFsDZvnN/iVfqDoDKMZNGynNr75Khk2NdwHwpNprytH86ubSl49su2rqrVBHtrjh32aBKh7dLNQzYfeNR0cYIpbJ4rRo8z7pP70eTiYueVtmrDgqc1cfc3uOgROuV2+qC9XBP/DBXpmxcr8Mm3NQJix+S6YsqwceoIf/4xa+6a7NXLVfCJtJ5vvf3yuTa+qkouqQywvAlGkjzxVzD8rkZXVCvKA0o06Pe+x8e5+Mqa6TUQsOO1jKlD9gauT8wy4scbz5Qy7Ix3uuGP8bPPngiS+jvPRY94bhGADUTbfeKN2f6CEr61YXLUiQ9x69HpYbbr5BfvrsEzJ4dD9ndWKtn0Wr58ranTXOAsE4fjrTWN7GTR0h7a5rK489/XjRlptOFPnnYX36hZ/KwJEvy5gpw5x3QaxO2uFhqCYARbnLSeb6tdy+lAe/gIqxUU9rnve+s83NGSoVcFJAozzMka1eOdu1J7QhtCdYc+25sucqrc9jKeeLOTb+8tGJH72wTkbMOySVq45mBBOAgOsjqg7L6AX7HTD409JjLEpD59SDWCaQ0PNjqt90YTNZoQCh4VUHG82XpqX7irmHHHBpfrz7qNMj7VELDsio6sOh8zhqfn0devPF/yD5+MOk/djgKQCeeOExCRiIYAjbotq5ct9D98j1N90gT/f9hUxeMk2qty5O7dh8nTdAHskreb7+5uul090d5eUhLziLEwChC8Su2vqaG3YCOOFFirH7u9/e7Cwyc5dOl8533yW3dLjVDWebVjNDFu9Ykuqykz/yyfC7W9rfInd2uVNe6P+MDB37inOOwYLAzFVYuWWxbK1b68pKR8eVu8xk7l0c1ya7W0cvrhcWuvXLl34h3Xp2K+oPMQpM/v19PbvJj3r1dA539EMUz5Z64ourXi1de2ZNB07XgaDO+ejqA85iouARZk/nH0tLUB1jRQKcxi16KzRMEHbYnAOnWaBqdjJ36EDodLx5xwLF0DxvHqNOj7QXb9nvwNN77zD/gVW/FS9IPt78F8N/gycfPCE0XvS89AConYc3OohYtn6Bc6Rw931dYvEMFZWHKX86bdq2li73dnLD1Zjrw5pOo6cMdZaXeTUzhWFrzHPC6gJAUG6cZgBRDOFjTszSdfPlhX7PCmsh8YXVf480Hrdqc6107HyHPNqrh7M2AU4A4+Q5Y0XLzTBFABk563DNcpS5DS86/eVbDI13seSR9rRmw0LXblSunlOS8ES5aAeHjh3g3P/TtmibyvNVLLKyfFpbUAo64O+cM/+GoWZhOvv+MCPnHQ6cvzNjZTiLkz89LFAM89N6xpkDc5wYiucPG+aYeANm1DU4kYg6PfLJHDCGMjZlsQvKL3FweOGdR+aXj9ZFMe0NngLgCQFifQIk+HoIROCFrmZDtbNYMNRtYuVoGT5hkPNWxxA4tkGj0rWxECrr+bAYLMA0dtpwBw+452ZtI7zrYVnjJY/VhZc85VaQwBJF2RnaBjwCHSysinc+yg6QpLHseBDUcrOWE/ObkBflXrBilgNGyg0YA4nImQ5eOcu8mBoty2txdfB4rvoOflEe7vVwSYKTWqEe/klP6fnj7u4d4ZzQ1K1tcCBhOltcOmvyKm55eTvneIXDuQHzcII6902dIx4OEEhH9YKhd8xxaipuputD5xxscCKB97xxi3IDO00f5xKkQ/6iTo80ca7BPfR+2e6JSxpaf1756Lli2xs8ZYCnhs708dfdC5CONl8TGeLGukCABJ1xYGLK3HFuw6rBNmn2mIJvmheXt6rxbkFU1vUBHpasm+c86zlnAW9vbnBTTZlR4KCyAxsMc2N+FG7Ni6LsVeOdfCg3eabcdGqwtDEsEXDyWl2Cyl0uMi+2hsvyWzydG56xLvd0kkETh5Q0PFE+vJSy+DRtzYY3Vrq1oLDoa9tqels8emuyKl5ZeTvnuM7GK1y2HX5veDzIVa4+aS3Cgx6OILxhsvlP3Pkb6tPDHTle9LKJ7w9LfNJBZ6NOjzTxSogzDf99wx4Td2rNyeGPXvkU63Nm8JQBnhAoLzy1wqhDAYADKxQQhTWGlyRAwYYDgrRt5AvYY+gdHvWAB4biubk+R7bUfxk9UW9x8iqxt+xY33AsgDterFDFUnbKjXwoN3nWcmNpcxan4687GXs7Nt5yl5vMvfK3/8XbcUib7LDsXtvqGpm5sjIxeGLtONZU0y2JteQoX8trWroPaHykYg01c8hiz1HansdyyI+3c87aQ7jQDtvRDwpH/Iq5BxosJ7ggx5NeUNgw54g7flF9erg0V3fkYeIGhSE+6SDbqNMjTdy55zqskPwSlzRU97zy0XPFtjd4agSeECadaR3OxRdEOtRYLRjOBkjpukhYZvjSmLaNfGE9AXwAJixozPMJs6BjsZedciMfyo28tNzI0Wtx8j+0xV7ufGTurws7ts5fPjrAs7T/vR1uPtCi7UsSgScWIAeadDgdi1JzTo/j2lM+5j2NnVohlYunuOHBeN7j41Nj7U0+9Wtx7fk0HThdB7ydcxZwzXXInoIK8UlH6zpfQAF2hlTWp8d8IL1PPvt+0+JJjzKTx6o1mV2nN5VvXMFr/kjPKx+t02LbGzw1AU8IVDvTvADpeGO1AKKcW++3N7s5Q3xhTOOGlQXYAxzIL/nGKQJOIYBCytaY0pZC2bXcam3SjkxjZS+Fcucq88b0wa6d/qK2OgmuE54hNj7UABVJwNO/fP+y00CJc2xxQZOmq/A0esowN6yZkQm6jhptDu2t6Uqwrli9WL1EqQPezrmDpzw6/oBBEDzNXZPbHCrS88LTkNl1EVme6uEp6vSQCwsIz2rCvXtjAIXlafi8k/DplU+Uck8yLYOnEPCkAtHOAC9BNl6I6p0OGEnlhve8E7tdXvUFHgaatMy6L5WyUw4tU5h9qZQ7F5mHqR8LY52eTDrAs4Pe8dEiiWF7OlRv2MyTC/AGnVPYiXqvw/ZwUsNyCK+tndcwv5I2mLrIVFd23p4j04HodMDbOY9q2N5wz7Azhu3lM0+JYXsTXqsfZjcmojlPpIMORZ0eaTJfafJSm/PkfUYNnrKAJypOO9O654VYLJvmmb1XCcL+98bnf7GUm3xq3sOW1RtO4+q+GMtN3r1lsv/RvaitLoPrEp3jWQGeWCsubocRDM3T4Xkzaisb5jvxP2pQCkpPHUYYPAXrgz0nVi9J6YAXnuas2S84fGjMMtLUtXqHESctJziMGJ9Hml6HEYu25OfJjrzjzY50qN+o0yNNPOXhYr2pesp0nfyxTpTK3ysfPVdse4OnLOGp2ARs+bUXlumA6UAhdMALTy++8pzgyjsIOqI454UldRKRFDRp/inf/T3ua1iI2yxP9twV4rmze546pwYX48wvynXeE/GidlU+bPaBBlflUazLxDpRpIPso06PNOvXeTqQ+zpP0+psnSd7MO2FYDpgOmA6YDrQlA6opZY5lgtX1S8iG9ciuQpPOIdQmNH9/U88eNo5vRbVXhfJ/fnzTzqHESzl4OY81a11c011yHRTdWbX7bkyHchfB/yWDRbJZbHbTJaRxs6zuG7l6pNWJ5XPzNq6nKwxWHCmrzzpuY/0lu3YJxVVh3LKX8Xcg1Kz86RVJ470SHPR5n0yoir7Ohwx75BUbzy1/vzy0Totpr1Znszy1GBKLSbFtbzm/4KxOrQ6jFsHACic7OBx7qlnfyL39ewWG8jgFAKrk9fixLkgoIoKmjSdbj27yYM9u8nAkS+7RcRnvzbVLUK+/eB687Zn71h7xyasA0Gd8zHVB2TU/Ow6/4QfXX0q6GibeeCDvTJ0Tp2My2L4HmGHzD4gxNV0dD9paZ1UzM0OoIZXHZRJS4PzF3V65HP0wrqs6pD6G7Xg9PwFyUfroVj2Bk8JP9TFohiWz9MbN6sTqxPTgex1AGcJzHvasHultG7bWoZNPenQQeEjqr0O2dO913lEVPfwp0N5WrVuJf2G9ZZh4we4BdOrV812C5Hj7RRvgzrv0vQne/2xOrM6y1YHgjrnO9/e5zr/WE8qm/Acx3UsJnT8iZfp/hv273MwFGY+EGEAJ+IEpbf//b0yeRkAdbDJNZXwXkc4wIl4SaTHPagLIHTk/MONDoNkqCMWO8AzqP6C5BNUhjSfM3gyeAp88NKstJa34MbS6sXqJY06wJA1rE+sMTdoZD9pfnXzWAHKDzdxHgNOVzVvLo/26ilDxvSX0VOGyqyFk92QPdZbY5kEyo4FLo2ysTxZm1GKOtC2XRvZun9t4DNXvanOrVs0ZsGbMnHJ2w5UWIcIIOEY5wb9p9edNtQsUz1hRZqxcr8Mm3NQcASBJz1ckbPxn3PMcZq2si7Q4uRPd8WufTJgRp2QPzz6kQ7DCtlzTP6Y47R0+6lD9fzp6HHU6ZHu7DV1MnT2AeeIgwWEgSU2/uNcw62DtebUoXqaH+SCfPS4WPcGTwZPRa/ExfrwWb6t41IOOoDVBesTIMGC1QNH9JWrrrpSnnrxZ7EN4YsTmDRt8n/llVfKEz/7kQwa1deB05Sq8VK9stJZnVgg160td2K3tbH2njUdSFAHHnm8hwwe2T9jneMAYdn2fc4FN+sPsYDriKo6mbaiznmW43q2bTMWJbzw4YIcBxVs4xcdkHnr6zJamzLdA6cPr23Z59yOD66szx9AMnZhnfOmp84hMsX3n486PdLHEcfsNfsEF+6spcVWMfeAzKrd767586DHyAX56HGx7g2eEnygi1VJLN/ZN6RWZ1ZnpgP1OuD1useC3et3r5Apc8fLHZ06yO2dOkjvoS/KtOUzZdGOJbJ878rUbuSPfJLfDnfdLrff2V6efuFJB07DXx0kk+eMlblLp8vyTYtky77VbnFyXYzcdMHaA9OB5HRg055aad68uQOoTBYok0dy8qCukQPghFyQT7HXv8GTwVPRK3GxP4SW/2Qbcavv5OsbgAIkmP+DE4W1u2rcIrK/7PO0dLm3k1tE9/LLL5e0byz2C/Q98kQPGTy6n5vjNHZqhZvnVLVshtRsqHZwqHOdGLJoQ/aS1zd7xq3O6aBj4WCIGHNsbCtsHSAH5FEK4ET7YvBk8GTwZDpgOmA6ELsO6PA9PO/tOLTBAdSSdfOctWbK3HEydlqFmzc0aFQ/GTiyb/024mUZGHIbMKKPvDL8Jelf8aJz3tB3aG9hw5ED57jGRriwaXrDMadp2LgBUjFhoGBpGjNlmPOsN33BqzKvZqbUbFwozHNibpcO1zNwsk68gZzpgOlA6emAwZN1mmLvNFnDUXoNh8nUZJqtDujwPdZ9AqCYE7Tu9eVumNvC2jmC5QZnC8DI1HkThPlDOW1zxzlLEEB22pZrmp540+ZPcHmsXDzF5ZnFcFduWezAadebG13ZsLJhdcq2jiy8PVemA6YDpgPp1wGDJ4Mne8GbDpgOmA4kogMAFFABXOw9tk0Y3rZ1/xoHUbXblrhhb0vXzZfFa6pk0eq5AlTlsuEq3L/lko43DvlhA5awmDG3iTxveGOlA8HdR7YIYIhzDHNNnv7Oj3VQTUamA6YDueqAwZN1mhLpNOWqoBbPGjfTgdLSAcBC3ZczvA3oYKgbnvgYDw+M4FQCqxRzo9K0kSfyRh43713t8oy1CU+COlTPwKm09NXaH5On6YDpgF8HDJ4MngyeTAdMB0wHEtUBLFA6jA9LDWshAR9YoxjSB4ywAVZp28gXecT5BXkm72Ztss6Vv3Nlx6YTpgOlqwMGT9ZpSrTTZI1J6TYmJluTbTY64AUoN5TvRP1wPmCEjSFwadw0fww9BJrIu1mbTPez0X0La/piOlDcOmDwZPBk8GQ6YDpgOpAKHVCgKqa9dYKKuxNk8jP5mQ6YDmSrAwZP1mlKRacpW8W18NbYmQ6YDpgOmA6YDpgOmA6YDiStAwZPBk8GT6YDpgOmA6YDpgOmA6YDpgOmA6YDIXTA4ClEJSVNtHY/+4piOmA6YDpgOmA6YDpgOmA6YDqQPh0weDJ4sq8MpgOmA6YDpgOmA6YDpgOmA6YDpgMhdMDgKUQlGfWnj/pNJiYT0wHTAdMB0wHTAdMB0wHTgaR1wODJ4Mm+MpgOmA6YDpgOmA6YDpgOmA6YDpgOhNABg6cQlZQ00dr97CuK6YDpgOmA6YDpgOmA6YDpgOlA+nTA4Mngyb4ymA6YDpgOmA6YDpgOmA6YDpgOmA6E0AGDpxCVZNSfPuo3mZhMTAdMB0wHTAdMB0wHTAdMB5LWAYMngyf7ymA6YDpgOmA6YDpgOmA6YDpgOmA6EEIHDJ5CVFLSRGv3s68opgOmA6YDpgOmA6YDpgOmA6YD6dMBgyeDJ/vKYDpgOmA6YDpgOmA6YDpgOmA6YDoQQgcMnkJUklF/+qjfZGIyMR0wHTAdMB0wHTAdMB0wHUhaBwyeDJ7sK4PpgOmA6YDpgOmA6YDpgOmA6YDpQAgdMHgKUUlJE63dz76imA6YDpgOmA6YDpgOmA6YDpgOpE8HDJ4Mnuwrg+mA6YDpgOmA6YDpgOmA6YDpgOlACB0weApRSUb96aN+k4nJxHTAdMB0wHTAdMB0wHTAdCBpHTB4MniyrwymA6YDpgOmA6YDpgOmA6YDpgOmAyF0wOApRCUlTbR2P/uKYjpgOmA6YDpgOmA6YDpgOmA6kD4dMHgyeLKvDKYDpgOmA6YDpgOmA6YDpgOmA6YDIXTg/wMw8unQNIMOeAAAAABJRU5ErkJggg==;" vertex="1" parent="1">
          <mxGeometry x="120" y="370" width="847" height="359" as="geometry" />
        </mxCell>
        <mxCell id="ZKwVpPPEvr6WydnbmwrV-3" value="" style="rounded=1;whiteSpace=wrap;html=1;" vertex="1" parent="1">
          <mxGeometry x="190" y="207" width="126" height="26" as="geometry" />
        </mxCell>
        <mxCell id="ZKwVpPPEvr6WydnbmwrV-4" value="" style="ellipse;whiteSpace=wrap;html=1;aspect=fixed;fillColor=#c1d2e3;" vertex="1" parent="1">
          <mxGeometry x="193" y="210.5" width="20" height="20" as="geometry" />
        </mxCell>
        <mxCell id="ZKwVpPPEvr6WydnbmwrV-5" value="" style="ellipse;whiteSpace=wrap;html=1;aspect=fixed;fillColor=#c1d2e3;" vertex="1" parent="1">
          <mxGeometry x="218" y="210.5" width="20" height="20" as="geometry" />
        </mxCell>
        <mxCell id="ZKwVpPPEvr6WydnbmwrV-6" value="" style="ellipse;whiteSpace=wrap;html=1;aspect=fixed;fillColor=#c1d2e3;" vertex="1" parent="1">
          <mxGeometry x="243" y="210.5" width="20" height="20" as="geometry" />
        </mxCell>
        <mxCell id="ZKwVpPPEvr6WydnbmwrV-7" value="" style="ellipse;whiteSpace=wrap;html=1;aspect=fixed;fillColor=#c1d2e3;" vertex="1" parent="1">
          <mxGeometry x="268" y="210.5" width="20" height="20" as="geometry" />
        </mxCell>
        <mxCell id="ZKwVpPPEvr6WydnbmwrV-8" value="" style="ellipse;whiteSpace=wrap;html=1;aspect=fixed;fillColor=#c1d2e3;" vertex="1" parent="1">
          <mxGeometry x="293" y="210" width="20" height="20" as="geometry" />
        </mxCell>
        <mxCell id="ZKwVpPPEvr6WydnbmwrV-9" style="rounded=0;orthogonalLoop=1;jettySize=auto;html=1;entryX=0.458;entryY=0.986;entryDx=0;entryDy=0;entryPerimeter=0;" edge="1" parent="1" source="ZKwVpPPEvr6WydnbmwrV-3" target="ZKwVpPPEvr6WydnbmwrV-1">
          <mxGeometry relative="1" as="geometry" />
        </mxCell>
        <mxCell id="ZKwVpPPEvr6WydnbmwrV-10" value="" style="rounded=1;whiteSpace=wrap;html=1;" vertex="1" parent="1">
          <mxGeometry x="334" y="204" width="126" height="26" as="geometry" />
        </mxCell>
        <mxCell id="ZKwVpPPEvr6WydnbmwrV-11" value="" style="endArrow=none;html=1;rounded=0;entryX=0.19;entryY=0.044;entryDx=0;entryDy=0;entryPerimeter=0;" edge="1" parent="1">
          <mxGeometry width="50" height="50" relative="1" as="geometry">
            <mxPoint x="359.06" y="229.43" as="sourcePoint" />
            <mxPoint x="359" y="204.574" as="targetPoint" />
          </mxGeometry>
        </mxCell>
        <mxCell id="ZKwVpPPEvr6WydnbmwrV-13" value="" style="endArrow=none;html=1;rounded=0;entryX=0.19;entryY=0.044;entryDx=0;entryDy=0;entryPerimeter=0;" edge="1" parent="1">
          <mxGeometry width="50" height="50" relative="1" as="geometry">
            <mxPoint x="384.06" y="229.43" as="sourcePoint" />
            <mxPoint x="384" y="204.574" as="targetPoint" />
          </mxGeometry>
        </mxCell>
        <mxCell id="ZKwVpPPEvr6WydnbmwrV-14" value="" style="endArrow=none;html=1;rounded=0;entryX=0.19;entryY=0.044;entryDx=0;entryDy=0;entryPerimeter=0;" edge="1" parent="1">
          <mxGeometry width="50" height="50" relative="1" as="geometry">
            <mxPoint x="409.06" y="230" as="sourcePoint" />
            <mxPoint x="409" y="205.144" as="targetPoint" />
          </mxGeometry>
        </mxCell>
        <mxCell id="ZKwVpPPEvr6WydnbmwrV-15" value="" style="endArrow=none;html=1;rounded=0;entryX=0.19;entryY=0.044;entryDx=0;entryDy=0;entryPerimeter=0;" edge="1" parent="1">
          <mxGeometry width="50" height="50" relative="1" as="geometry">
            <mxPoint x="434.06" y="229.43" as="sourcePoint" />
            <mxPoint x="434" y="204.574" as="targetPoint" />
          </mxGeometry>
        </mxCell>
      </root>
    </mxGraphModel>
  </diagram>
</mxfile>
